<mxfile host="app.diagrams.net" agent="Mozilla/5.0 (Windows NT 10.0; Win64; x64) AppleWebKit/537.36 (KHTML, like Gecko) Chrome/139.0.0.0 Safari/537.36 Edg/139.0.0.0" version="28.1.0">
  <diagram name="第 1 页" id="pXqzVgdggAfPzA_IH-Na">
    <mxGraphModel dx="682" dy="1019" grid="0" gridSize="10" guides="1" tooltips="1" connect="1" arrows="1" fold="1" page="1" pageScale="1" pageWidth="827" pageHeight="1169" math="0" shadow="0">
      <root>
        <mxCell id="0" />
        <mxCell id="1" parent="0" />
        <mxCell id="A40XxY-_fLG40fNn6AR6-1" value="" style="shape=image;verticalLabelPosition=bottom;labelBackgroundColor=default;verticalAlign=top;aspect=fixed;imageAspect=0;editableCssRules=.*;image=data:image/svg+xml,PHN2ZyB4bWxuczp4bGluaz0iaHR0cDovL3d3dy53My5vcmcvMTk5OS94bGluayIgeG1sbnM9Imh0dHA6Ly93d3cudzMub3JnLzIwMDAvc3ZnIiBzdHlsZT0iY29sb3I6IHJnYigwLCAwLCAwKTsgZm9udC1zaXplOiBtZWRpdW07IGZvbnQtc3R5bGU6IG5vcm1hbDsgZm9udC12YXJpYW50LWxpZ2F0dXJlczogbm9ybWFsOyBmb250LXZhcmlhbnQtY2Fwczogbm9ybWFsOyBmb250LXdlaWdodDogNDAwOyBsZXR0ZXItc3BhY2luZzogbm9ybWFsOyBvcnBoYW5zOiAyOyB0ZXh0LWFsaWduOiBzdGFydDsgdGV4dC1pbmRlbnQ6IDBweDsgdGV4dC10cmFuc2Zvcm06IG5vbmU7IHdpZG93czogMjsgd29yZC1zcGFjaW5nOiAwcHg7IC13ZWJraXQtdGV4dC1zdHJva2Utd2lkdGg6IDBweDsgd2hpdGUtc3BhY2U6IG5vcm1hbDsgdGV4dC1kZWNvcmF0aW9uLXRoaWNrbmVzczogaW5pdGlhbDsgdGV4dC1kZWNvcmF0aW9uLXN0eWxlOiBpbml0aWFsOyB0ZXh0LWRlY29yYXRpb24tY29sb3I6IGluaXRpYWw7IiBvdmVyZmxvdz0iaGlkZGVuIiB4bWw6c3BhY2U9InByZXNlcnZlIiBoZWlnaHQ9IjM3OC4wMDA1Nzk4MzM5ODQ0IiB3aWR0aD0iNDgxLjAwMTM3MzI5MTAxNTYiIHZpZXdCb3g9IjAgMCA0ODEuMDAxMzczMjkxMDE1NiAzNzguMDAwNTc5ODMzOTg0NCI+PGRlZnM+PGltYWdlIGlkPSJpbWcwIiBwcmVzZXJ2ZUFzcGVjdFJhdGlvPSJub25lIiB4bGluazpocmVmPSJkYXRhOmltYWdlL2pwZWc7YmFzZTY0LC85ai80QUFRU2taSlJnQUJBUUVBWUFCZ0FBRC8yd0JEQUFNQ0FnTUNBZ01EQXdNRUF3TUVCUWdGQlFRRUJRb0hCd1lJREFvTURBc0tDd3NORGhJUURRNFJEZ3NMRUJZUUVSTVVGUlVWREE4WEdCWVVHQklVRlJULzJ3QkRBUU1FQkFVRUJRa0ZCUWtVRFFzTkZCUVVGQlFVRkJRVUZCUVVGQlFVRkJRVUZCUVVGQlFVRkJRVUZCUVVGQlFVRkJRVUZCUVVGQlFVRkJRVUZCUVVGQlQvd0FBUkNBR09BZm9EQVNJQUFoRUJBeEVCLzhRQUh3QUFBUVVCQVFFQkFRRUFBQUFBQUFBQUFBRUNBd1FGQmdjSUNRb0wvOFFBdFJBQUFnRURBd0lFQXdVRkJBUUFBQUY5QVFJREFBUVJCUkloTVVFR0UxRmhCeUp4RkRLQmthRUlJMEt4d1JWUzBmQWtNMkp5Z2drS0ZoY1lHUm9sSmljb0tTbzBOVFkzT0RrNlEwUkZSa2RJU1VwVFZGVldWMWhaV21Oa1pXWm5hR2xxYzNSMWRuZDRlWHFEaElXR2g0aUppcEtUbEpXV2w1aVptcUtqcEtXbXA2aXBxckt6dExXMnQ3aTV1c0xEeE1YR3g4akp5dExUMU5YVzE5aloydUhpNCtUbDV1Zm82ZXJ4OHZQMDlmYjMrUG42LzhRQUh3RUFBd0VCQVFFQkFRRUJBUUFBQUFBQUFBRUNBd1FGQmdjSUNRb0wvOFFBdFJFQUFnRUNCQVFEQkFjRkJBUUFBUUozQUFFQ0F4RUVCU0V4QmhKQlVRZGhjUk1pTW9FSUZFS1JvYkhCQ1NNelV2QVZZbkxSQ2hZa05PRWw4UmNZR1JvbUp5Z3BLalUyTnpnNU9rTkVSVVpIU0VsS1UxUlZWbGRZV1ZwalpHVm1aMmhwYW5OMGRYWjNlSGw2Z29PRWhZYUhpSW1La3BPVWxaYVhtSm1hb3FPa3BhYW5xS21xc3JPMHRiYTN1TG02d3NQRXhjYkh5TW5LMHRQVTFkYlgyTm5hNHVQazVlYm42T25xOHZQMDlmYjMrUG42LzlvQURBTUJBQUlSQXhFQVB3RDlVNktLS0FDaWlpZ0Fvb29vQUtLS0tBQ2lpaWdBb29vb0FLS0tLQUNpaWlnQW9vb29BUmpnRTFYbHZJWVNVa25qUjhad3pnR3JCcnlqeDVNRjhVekpuSEMvK2dpZ0R2Ny9BTVZhUHBLS2I3V0xDekI2TmNYU1JnL21SVFlQR09oWGk1ZzF6VHB1TTVqdkkyL2sxZktYN1JuaEtYeGo0SXhiVzBjdDFCT3JvSHhqYWVEeit0TStIWGdDNDByd1piZmFZN0tDVVc1QmdSQTZuSTQrYXBJdStheDlZMlhpclNOVGc4NjAxZXh1b2lkdStDNlIxem5CR1FlMVh2N1R0ZjhBbjdnLzcrai9BQnI0bS9aaTBHSzE4QmI0YmxBSU5TdWtlTkJ3RHZKeCtvcjJvRUJja0EwY3hxZTNmMnRaSXVYdklGOTJsVWYxcEUxbXdseUk3KzJjanNreWsvenJ4Um1XU01weGh1bkZNc05QK3dDUnd3ZG05aFJ6Qnluc2t2aXJSN2R5czJyMk1UQTRJa3VvMUkvOGVxRStOTkFCQU92NmFHYmtBM2tmUDArYXZuTFhmQ01ldFR6enJZcGN5K1p1MithbzR4enhYbVUzZ1piSFhsYWUxdjdZdXJKKzZ0OXdHNCt1S09ZeWs1TDRVZmNYL0NUNlFGRG5WN0pRd3lOMXpIeit0UXQ0MThQS1NHMTdURklHU0RleDV4LzMxWHlpdmhEVGRQOEFzc1RDV1l4amIvcEM1MmozRmN4ckhnTjN2cExtM0ZnWXlSRWRzT3o1U2U3ZHFPWVQ1cmJIMjNINHAwYVdNUEhxMWk2SG95M1NFSDhjMHcrTHREM3NnMXZUOTQ2cjlyanlQMXI1bDBuUmxYVGxoUjRGU0hBUVFBYlgrdjByTnV2RDF1WHVKR01TVFNNTWxZd0NjZHVsSE1DY3V4OWFSYTNZT2dZWDlxNFBRck91UDUwNyszTk81LzArMXdQK202LzQxODR3ckNMZUtHQk5zYXFBV1FjWjc4MUFMV0Y1Q2tkc0pFT2R3QjViMXg3amlnMFBwS1hYTlBqUnBXMUMxV01ESll6cmdEODZ3WXZpeDRLa2RrSGpQUUhaRzJrTHFsdndmUWpmWDVvZnQ3ZnREVGVCOU5zdmg3NGV2bHRkUXVsTW1yeVJuTFJRNHdzWVBaampKK3RmR1h3N2doajJ4dXFDVnBFbkp3Q1R6bnI5T3RVWVRxT0xzZnY5YS9GZndWZTNCaHR2R2ZoKzRtR1FZb3RVZ1pzanJ3R3pXa25qWFFKR0FUWHRNZGowVmJ5TTUvV3Z3Ky9aSDhIV2QxNDk4V2EvUGJpVTI4c2dnQlVFS1djbXZxRFV0S2dLRm8wRWJuSitRWXdhNVoxK1dUalk3WVFVNHFSK2w2NnRhU0x2Vzh0Mmo5UktwL1hOUVA0bDBsR0lPcVdRSTY1dVVHUDFyOHpEOFVmRTNnSFM3dTR0cnlWb1lvaVJIa01ENmNHdkY5Vi9hbThiWHhsa2lTT0pYT1NQSVRyVlFyS1FPblpuN01qeFZvdy81aTloai9yNlQvR25MNHEwWW4va0wyQi83ZWsveHI4UUx2OEFhRjhmU3I4bHdRRDJTTlJpc2U0K09IeENueURxMXhIM3dyQWZ5RmFPUkRpZnV4L3dsR2paL3dDUXZZZitCS2Y0MHlUeFZvcUxrNnpZTDdtNlQvR3Z3WHVQaTM0OW5VN3RhdXo3Q1ExbFhmanp4amQ1TTJzM1JIcTBwb1VoY3AvUVJZNmhiYWt2bTJ0MURkUmdsQzhNZ2RjOXhrSEdmOGF1VjhlLzhFdDc2KzFEOW5DK20xQzRhNXVQK0VodXh2ZHR4eDVjUGV2c0tyVHVMWUtLS0tZZ29vb29BS0tLS0FDaWlpZ0Fvb29vQUtLS0tBQ2lpaWdBb29vb0FLS0tLQUNpaWlnQW9vb29BS0tLS0FDaWlpZ0Fvb29vQUtLS0tBQ2lpaWdBb29vb0FLUTB0RkFDRHB6WGgveE0xYzJuaSsvMjI3eW1OVU9SMitSYTl3T2NISFgzcjh3djI5ZjJzdkdmd3UvYUExTHdyNFZ0N2VGRXRyZDU1N2lFeUdRdkVyRGFPMk9sSzNOc0d4OUorSmZGTjVKNGV1Z2xtb0VvMlljZ2dxZUQrbFlNWGp5NTB1R08zZzBwbnRsandpNUlIeThEdFg1djNYN1JYeHk4U2dwL2JHb3NqdmdSMnRvb0FQWEhTb2sxSDQ4ZUpaa2dGNTRtbWxrd3lwSHVUZDdZQXlLSTBhajZtVXNUUlQzUHVmNEsrTkxud3hwMnRXUjB3Q0VhdkpjenVXNVV1ZWd6amppdmVKOWYwMjJVbTUxT3pnQkdmbm5VVitWQy9CajQxNm0wNXVuMWVNai9BRndudm5RajhNODFiaS9aSitKT3B6TEhjeWZNN0JNVFhiUDE3MG5DTlBTbzB2bVAyOEovQ2o5TTlTK0puZzdUWW1GMTR2MGUwS2pJWjd4UDZacm5MbjlwdjRZYVRHNjNuanZSbWNESThxNERacjRNMHY4QVlOOFYzcExYZC9iUkt1N0lDdWM3ZndycGJUOWdDOWhJRnpxY2pFaklNTVF4MS8yaUt3OXBSVzlSUDBhRjdaUStKUDdtZlVtby90cy9CelRrSWw4VlJYZU9jVzFzOHArbkFyNVUrS1A3ZlBqRzY4VjZxZkJPcVd0djRhZTVLV2F0QWZPTWE5SGRTM0dmU3RuVmYyRkxQUS9EK3I2amNYTXpwWlFTM0FKS2pkdFFuSHlrOXhYeWxweHNwYmV4aWx0VmxFdDIwVG5PeHdwMmpHU09lcHJXalZvVkhKMDNkRnhuS1N1ZlEzaDMvZ29MNHUwMng4clY5TnQ5WnZTeGNYSGxlV2NlaEFPSzBMai9BSUtINjFka00vaGExT1FNZ1p3Znd6aXZldEsvWUU4RjNPbDJ3WFRaWm1lSkhFcjNoR2R5Zy8zZmV0aXkvd0NDYzNnRnR3dkxhU0pTbnllVGRFOCsvd0F0YlFuU2F1Y2NzV295NVdqNTJoLzRLT2E1REVZazhMd0tnSFJRRi9XdWIwLzl2YldyUFhWdjMwSjVVR1NZMnZBVTUvMmNWOUo2dC93VGs4Q1dqcXdrdTBKSENMY2RmL0hhdzMvNEoyZURwQ3BYVTc2UHVjelovRDd0Y2xmSDRPazBwelNOWVRxVmZoaXp6T1AvQUlLV2E3R1BrOE1RS0NjNHdmOEFHbEgvQUFVczE1RzNyNGF0a09jNTI5ZjFyMEdiL2duVjRWQkJUVUxzODgvdmhnLytPMW55ZjhFOHRCanVTeVhkd1V4MSswcVAvWkt4L3RiTDlWN1ZhRi92RjltWDNIelA0dytQZWdlSmRjMUhYMThGV3orSWI5dk1udWIrUTNDRS93QzVrWXJtajhWbzc4VCtiNGUwR3lZbFVNMEFhM1pjbkdRQzNTdnByNGpmc1IrSGZBM2dYWDlkZVM0Y1dGcTF3UDhBU1ZiSlhIYmFQV3ZoKzh6TEFNeHFzYk51eGdCd01kTTExVU1WUXhVSFVvUzVraFdsRFdhKzgrcWYyYS9FSGhyd1Q0YzFTSFV2RTJqSnFGNWV0SXlyZUw5d2ZjL25YdFVmaW5TTlRSamFhMVlYR1RrK1ZjSTNYNkd2aXF4K0MwR3JhWnAwOXJyTVlsdTFETkZNdVBMeVBYcFZhKytCR3RXU1BKYnpRenBId1pJODQrdWY4S3VyZzA5Ym5SQ3VvcXg5WWZGcS9rdHZBMTY5cUJPNzRVZVVONTk2K05mRlhpSFY5THRMQmJTU2UxbnVYZVdWTmg2QTRBd1J4U2Y4SXA0bjB0Mit6M1Z3b0gvUEM2WUQrZFF2cUhpMnlQelMzYmtadzB2N3ovMExOS09HNUhvRHJLUmdmOEpScisvZTkvY0Rub1R0RlhSNGx1Smt6Y1hoaGtKNFVTRWtpcm84WGExRm56cmEybVk4RXkyS2Z6Q2lxdHo0aVMrbVI3N1E5UGNvTUJsUjR6K2hyV1ZHNGxVczlTbHFXcE85bTRXZVNWdXYrc05aK2ozeXdtUnJtYVRnZmRKSnJZbDFUUkpnUkxvem9QOEFwamRBZm93TlF5SFFiZ2t0SHFGdXYreHRmSDhxejlrMGFjOXo5alArQ1I5M0RmZnN2WDhrSkpRZUpMd2NqL3BsQlgyelh4Si93U09qdG92MlhiMWJONUpJUCtFbHZlWlZBYi9Wd2VocjdicHBXMElidUZGRkZNUVVVVVVBRkZGRkFCUlJSUUFVVVVVQUZGRkZBQlJSUlFBVVVVVUFGRkZGQUJSUlJRQVVVVVVBRkZGRkFCUlJSUUFVVVVVQUZGRkZBQlJSUlFBVVVVVUFGRkZGSmdKWDQ3ZjhGT3JkOUgvYTYwL1VUOHZuMlZvKzllRGdFS1IrbGZzU1RnRTlhL0duL2dxcHI2My9BTzBxMWlzTHh5NmRhd0taU2VIM3hLNEErbWFGc0o2bys5L0Qvd0FQZEJUUnRPbml0VG00dG9wU1E1SEpRYzFzMlBnblJMTzZndUxiU29JN2lNN2hLUmxnYWcrRTEyTmErRm5oRyszZVo5bzB1QmlmZllPbjVWMlVGbXB0NUdQUVY1TXFzMTlvK2RsU2o3UzFqZzlWRm5GZVN0TGFMSkdHMkh5MUFMSDFKNzFTL3RXemhkQ21tRGQzTFNZL2xWenhIdXZyVDdTdG83SXNnWGVPQjF4dXJHVWhXUHkvcFh0WkpsR0N4OUdWV3V2YWU4ZUptdVo0bkJWWXdndVRRazFueFRQcHVrWGwxYldWckU4TWJPQ2N0Mzc1NjhWTDRNMUdieGZMcUtUZVNWdDFpMnJBb0d6ZGtuT091ZmV1ZThjbG44RzYzc0JkemFQZ2UvSDlLbC9adWtFVGEvYS9adkpieTRaVE01eXpmZXdNZWxkdWE1ZGhjRlN2UnBwZkkweXpHMThiSGxxeVpIOFdiUDdEOE4vRnJPamZKcGwxa0gvcm1hL0kvUkNWdU5IYkdJanFDN1Rqbk9Wei9TdjJBL2FBbCt6ZkRQeGR0WWtycE4wMzV4bXZ5STBSbGF3OE5CZXAxVUFFL1ZLK1l3RHB5YzZkT05yYjJQcnFFS2thYmNuYy9lRFJvZDJoNldWYmsya09SLzJ6V3J6d2JJSGNJQ3dYZ0RxVFJvYUxIb21uQTRCRnBEMi8yQlZqVTFsTmdvdGxEekZ1cDR4V01wd2luWTRGZVVqenE5YVNlWjVIM2ZNY1l6MHBiZlRwNTJDeERjQ09oTmROQjRRZVdYemJ1UkFjNUtMMnJiaXNyZTNVQ05VVmdNYmd0ZkxSeWhWNnNxK0lkMWZSSHN2SFNwd1ZLbXRlNXlNSGhVc0EwenNNamxRS282bDRkV0pHZU9RNFVmZEk2MTM0WVJqWVhCL0NxTjNESE55UUd4WHVRdzJGaXVTTk5XZmtlYlVsWHZkVGIrWjhvL3RkelNhVit6dDR6bVBIbVdxdzV6akc1eFg1T1hvVTJWakZoUzBzMjQ0NzErcWYvQlJQVjEwejluM1ZMVUZWKzEzdHZIOWZtSngrbGZrL0JJc21zV3FsdmxFZ0hIUUd2YXkzQzBzSXBScGJOblRUblVyUS9lZEQxNVlwenBrVVhtdUlObTBxVzRBUFllbGZUUGhYeHA0TDhHK0R0RDhPNnpkUngzNjJhU3lwUEhrSGZram5IcGl2blZXZ2VDM2dSbWFSaXFnWXlDU2NmeXpXdjhXMzhyeDFld1pPMjJodDdjWkg5eUZBUitlYStobkJUZGt6QzdUMlBvWVd2d3o4UXJsWk5JSlBKMnNJeVB6cXBmZkEzd1ZyQURXcWdCaGxUYlhXNEg5YTg0L1pIK0dPai9HVDR5VzJoNjVhUGVhVEZaVDNGeEhHK3h1QUFwRGR1U0srczlaLzRKNC9ENjdsTW1qYTU0ZzBKOC9JSWJveUwrR1NLODJ0KzRmTHpHOGJ0WFNQbjI1L1pkMGhvdjNON2R4RW5nT3F1UDhBR3NDNy9aTWtrWnZKMUMwa0I2TExBVkovR3VzL2FZK0NuaVA5bHp3eHB1czZYOFRkUjFLTzl1amF4V2R4R1E0d3BZazV5RDB4K05lTWFYKzAvd0NQdExqVXZxTnJlb0JuYlBBTS9pYW1LclNqZUQwTDE2bTVmZnNsM2piL0FESXJabUhDK1NhNHpXLzJYYnkwaE1pVzByc1ZEQklqbHNFNHI2aStHbmpYVWZISHcyajFyVVd0TEc3bm5lR05vc2xQbGJHVCtScnFkV1pMRFE3NjhrQU1rRnV4M0p4Z2hlbyt1YTVQcnNvejluSkduSTNIbVRQWXYrQ1hIaGR2Q1g3Tmx4WnZJcm1UWDd1YkFPU3VVaUdENy9MWDJEWHlaL3dUYXVCZGZBL1hBQXVZUEUxM0VkdnFJb01uOHpYMW5YYW56YWxyWUtLS0tZd29vb29BS0tLS0FDaWlpZ0Fvb29vQUtLS0tBQ2lpaWdBb29vb0FLS0tLQUNpaWlnQW9vb29BS0tLS0FDaWlpZ0Fvb29vQUtLS0tBQ2lpaWdBb29vb0FLUTB0SWVsQUNINWdRUmtZNlYrUTMvQlduU1dnK01XbjN4ZmVseEFpaU5Vd1FSR3ZKTmZyeU9NMStWdi9BQVZ0dGQrdjZiYy9LUExkWXdjOC93Q3JRLzFvSmV4OU5mc2s2dTJzZnMwL0Q2NmNaWmRQV05zZXFraXZZSTdsSUkzRG5nOXErTlAyT2ZqL0FPRVBCMzdNL2hxMjhSZUlMYlRyaTNsbWhFTWpmTmdQa0VpdXk4Ui90MC9DM1RIWjRkVWx2MGpISWhUcWE4MmRDYmxaSThPcktTbjdxUG96eFBCUGUrSDU3ZlRsQW5aVkN3bjVSOTdtdUZqOEVlSVpZLzNqV1ZvMmVOenMvSDRDdm1IeEQvd1VzME95aWtYUzlFbGtPNGhXbGszY0U1NkRCcnlEeGovd1V1OGQ2aGRPTkVoc2RKdFNnQUlnM3laSTkrT3Z0WHI0U3JqY0pTOW5DVVVtY2xYQ1U4VlVVNmxOcy9RSi9oWkxlMnNzR29heXpSeXFWZExlTUtjSDBKSnF4NFY4RCtIdmhoTGZYa0dvT3MxM0drY3MxOWRKa0t1Y1lIR090Zmsxci83Ykh4UjExSFc1OFYzenIzVzNZUXF2dGxlYTg3MVA0bmVML0ZMelhFMTNxZC9FdjMzZVNTUlFUM0p6ajhhVmFPSXhDdGlhanNkbEhCeG8vd0FPTmo5V2YyZ1BpSjRYdWZoNzR6aGo4UmFaTGVTNlpjd3BBbHdyTVQ1WkFHQjN6WDVVYUhlSmEyM2gyV1FnUlFhcjVqODlGK1FrL3dBNjF0QStFSHhNOFlhWStxYWZvTjVKWUNGcFRkbmJHaFRBNUJPQ1JnVnhTYWRmdEtrU3J1NVptRy9PQ2VDRCtWYzlEQ1VxRW5LbTlXZXBGVFVPVnMvZHZ3dDhjL0F1dWVIN0M1aDhXNlBCSDlualhaUGV4b3d3b0hJSjRQRmJVUHhYOE1TVzAxeXZpZlNIZ2hCZG1qdlkyd0I3QTgxK0JEMnQ5REo1VGwxWURkdDNVTExlV3B3c3NxYnV1eHNaL1dxZURUTVZRdHFtZnVEQisxNzhMTHE3ZUJQRXNheWJpdnpEQXlNNS93RFFUV2hMKzB2OE8wUU9mRTFxRXpqY01uUFgwK2xmaGUwbCtoM2ViTG4rOWtta2sxUFVabENHZVZndjhKTlovVXFTWWV4bC9NZnVUYi90TWZEbTdnbG5UeEpCNUVSQWVWbFlMejc0eFRVL2FSK0c5ekk4TUhpelQ1WlA0VmpsRE1md3I4TnhxZXB4d3RHbHhPa2IvZVFNUUQrRk5Pc2Fta2l1TGlaWkZIRDl3UHJTbGc2TFRUYlJNYU5WUGZRL1FmOEE0S0xmRVBTOWMrRjJrV2VtNmhCZVMzT3FxL2xJNEpWVlE4bjA2MStmbDFvZDFwUGlTMWdtTWJHNVZMdFRHMmZrY1pCeFRkUzhTNnJmV2ZsM0Z6TmNnZmRXUVpPZlVmNTdVMjY4VDNmOXN3YXBhMmtpaTJoamlqM3J1QzdSanJqSDRHcXcxQ0dIamFFdCs1MldhaWtlbGVHN2UrazhUNk5iTXJ4dE5keG9BNUdBQ2V2Rkw0KzhUL2IvQUIzNGhrWWtLOS9OdE9RR0lERURqUG9CWElhSjhaNzNTdFJodXBMV0NXNWpsV1ZXS2pJY0hJUEhYcFhxY0g3UzNoVHhLeFh4RjRUc3BwSkRoN294S0NmdkU1Q2hUbkpIZXV0T2NXWnl1OTBZL3dBTlBqTjRxK0VIaU45WjhLYWdtblh6eEdGNUhqRGhrUE9DQ1Bhdm9idzEvd0FGSnZpVHA2eHBxOWhvbXRxT0d3alc3c004OGdrZnBYaWJYbndoOFRDVXh3WFdrWExmY1czdUNvSDNSbmErZTVidjJxUFZmaGI0V2dTMG0wL3g5REQ5cVVza1Y4dU1ET05yTWhJejlSV2RSVXFuOFNPbzR5c3JIZC90TGZ0VTNuN1NHbStIYlNYUWhvaTZYTEpOSXF6Q1ZYWmhnRUhBN1Y0SlBLb0RBcVBhdTl0L2d4NGhaYzZaY2FacmtaSEFzYjVYWWoyQndmMHFsTjhMZkVjZXEydHZkNkxlMnJTeXJGaDRXd054QXpuSHZXYW1xY1dvN0ZwYzJwOW4vQ253K05HK0ZmaG16bGpCYjdHc2pLd3o4elpZbjh6U2ZGelZsMFB3RnFGMDZodk1LUjR4MXoxcnBwN2dhVkRhMlhsbnk0RVNMZGpncUFCeCtOZVEvdFgrSTQ5RzhFMjlydXhKSjVrNVVuc0Z3UDFyNTJuS1VxMXJIWE9LVUxJK20vOEFnbEhkL3dCb2ZzNjYvZFp6NTNpN1VYejlWaHI3UnI0ZS93Q0NRT1QreXRmTjYrSnIwblAvQUZ5Z3I3aHI2UmFJd1FVVVVVRENpaWlnQW9vb29BS0tLS0FDaWlpZ0Fvb29vQUtLS0tBQ2lpaWdBb29vb0FLS0tLQUNpaWlnQW9vb29BS0tLS0FDaWlpZ0Fvb29vQUtLS0tBQ2lpaWdBcEQwcGFLQUdNUGxPT3A5Sy9MNy9ncUQ0ZTFEV1BFVnpKTmRKSnB3a2hXS0NPUDk1RXhoWEpKOXlLL1VKaGtZcjhzZitDaVBpdDdyNHg2MW9FbXBPOE51TFNWYkZJTWJHTUNuZHZ6azljNHgzcHhUa3lKYkg1OXBwZmlkN1NRSFQ3OXJXSEx0KzZiWkd2cm5HSzlBOEcvczVlTS9HTnBiM2l5V09uMk15NzBtdTdrSUNPeC8rdDFyVS9zUDRyYTFZM1duSnJMdzZKZEtJakhKd1hUc09LK3VmZzk0WnV2RFBnNjFzdFZOdmQrV2tZamhFWUlpQUhYbnZYVnF0VE5SUzFzZUZlSC9BTmg5WklSUHJQak94aGhBeTVzWS9NL0pxN1B3dit4bjRHaTMzbXBTNmhlMjVHMkdDWnhHemM1M0hiMHIzaURTTFdhNmphRFNVYzR3R1ZNQS9oLzlhdWlGdnB3czl0eHFOcjl0ZHlGdFlTWnBzRCtIWWdKSDhxVDEyTkxIeEI4WmJId0Y4SWZHRmpiV0hndU9TV0dIenhNMDV3VXpqYVZiZzU5YXh0ZCtNRC9EV0hTOVZ0L0FXbjZmcC9pSzBhNVN5dEw5akRQR0dLbnpJK2dyNksrTXY3TWVrZkZQVjdiVjdwdGFzN3FHRXdlUXVtem5lTTVHUGxyd3dmQWF5dTdnYWJyOEYyMWhwbSsxc1N3S1NiUTJXM2p0elU4Z2M5ajZKK0VNOXA0OStEV2s2cEZicjRlTjdiU2hyZlM1R1dPTWJtVUtvUFVjZDYrUVBpTDhNWWZCWGpQVU5PKzB5ek1vODUyZis4M0lHUjlhKzBQaDVhNlo0UzhJNlhwR2s3SjRMV1A1VUVtNWxHU1d5T3ZKSXI1azhmejJYamI0aGVJN282dnB0cVZ1MXR6SGRYS29SZzdSMzdZNXJXbTNGa3liWjU1WStITFlaZGtqTG5LNzNHZWxUWEhobXpuakcrS0U4QThBYzVPQU1DdHkvd0JNajAyN050SThWM0ZISTZsN2R0OGJZNnNyRHFLalN6ZFlaWkZ3c01TTElXUVlad1RoR09lK2UxZEcrcHlPVHVjNUw0S3MraldpRWpkbkRkTURtb1Y4RDJaR1k0Zkx6Z0REZHowL1N1aGxpYlkwUDNaaXpxVDZ0akxmbjFwejZaT2JXT1VLOEtPcXNyT3dBeDJQWHJRVkc3Nm5OdDRIdHg4NVZpQWNZeVR3T3RFdmhHMFlHSTJyYzRCY0UvS0NNNXJZZVBDYlFUSTRrSUFEbkxFOXNlbnZVWXRwd3dkeTBTRCtLUU53VUhJUHY3VVBYY3UzbWNySDRiOGh2TGhuTWFCdVMyZWc5SytodjJXZExzWDB6WFliNWJlK2RabEpobGpEQUt3d0RnKzllUU5FcGY1aUhXUlJLQ29JREE5aG52WFZmREx4Skw4TnZHTWVxYXBZM2NlbFNEeUx0STB3Mnh1VXdHd0N3NjQ5SzRzVFQ1NGFIUlJhaTlUM3J4SjhBdmg5NHFua0Y3NGJ0b0p0b0xTV284cHNudnhYejc4ZWYyYWZDZmdEUkJxZWg2aGVvV2JtMXVNT21PblhyMUlyNnp0YnFTNHVHdURobHVFV1dNSGhsUWpLNVhyakhldkEvd0JxTFVqTmEyVmhHK1ROS2dFZmNnbm4rVmVCRDJrSldiUFRhcHpWN0h5RnFtZ1M2UktzYlRSc3hVT1FEZ3Bua2ZwL09xaVhVcWNlYVQ3TWM0K2xkQjRrOEw2eHFXdjMwd3RRc1RTRkVhU1FBYlJ3Ty9vS3oyOEVYVUM1bnZyRzM5Y3pBMTY2bTBlZTRKOUNUVGZHR282VElqd1N1R1E1WERFZnlyMC93eiswNTRtMEZRcTZoY2lNRUVLWExMbjF3ZTllVHZvc05tdTgzNjNCenR4QWpNQ2ZyVjZiUjdhMk1NUWl1WkhLNWR5b0NyK3REYWt0UTlsZFhSOU4rSFAyMU5VSGxMZUcydk5vd1B0RWUxc1k1R1IrZFpQN1JQeHFzZmlaNFF0bHRKNFRkdXFwTEREejVZQjU1UE5mTVY0aUpNd1Znd0RZelU5cHBkN2VKSkxieGxvMEhSUWM0N25BNjFuR2xUaTdwYWg3MXJObjdLLzhFZ09QMlZMOGVuaVc4SC9rT0N2dUd2aDcvZ2tBMy9HS3QrTTUvd0NLbXZlY0VaL2R3ZXRmY05hQUZGRkZBQlJSUlFBVVVVVUFGRkZGQUJSUlJRQVVVVVVBRkZGRkFCUlJSUUFVVVVVQUZGRkZBQlJSUlFBVVVVVUFGRkZGQUJSUlJRQVVVVVVBRkZGRkFCUlJSUUFVVVVVQUlSa1YrVEg3YzhWdmZmdFplSjRoQ0draWdzREt4SjZHQmY2Vit0RmZsQisyMGtkdCsxWDR3bWxCeExCWUw4dmYvUjByYWg4UmxVZGtXOUwwbXlhMXR2S0FlSlVURzNwMHEvNG84UUd5dHJQVHJaMmU1dUFXV0dEaDN3Y0tvUHUySytldkR2eGIxUzB1VFlUeFd0bmFSRmw4MjZrSko1NElVSEpyMC80ZStKZE9PcmpXOVJ2VmZVcG95VmxrTzFVakIycXFnOU81elhUWmszUjdETmM2cnBQdzR1TGhYWnI3VDdUSDJpUEprWnU3REdlbGVvZkEzNG9lQmRKOEZOSmJhMVk2ZElXek9idTRSSjVEakpMOUN4OTJ6WHpacS94Vkd2YXkrbStHQ05RamphU09HSGNWVzVQRzVwR0hBUVo2ZXZGZXQrRm04QlA0WHMyMVRUclcxMTNUNDRWdUxyVW9sVVhEY0Y5cEhCSHpIOHFtRWJiamxLeDZYcTN4V244WHd5MjNnaTBrMVViQ2o2dGVneDJLS2ZSdnZTbi9BSEJqM0ZmQ2Zpdnd2ZFIrSU5Ycy9FMTdkUjNQMnFReVFReU5GRW1XNHdNa2dFSEk1cjlCQjhSL0JoZzJKcTFpa2NLamFzWTJyc0E0QXdPYStiZjJsdFY4QmVNNTlQZXcxSzNpdUVkbnZicmQ1Zm1rZ0JPVDEyNDZZcld4T2g0Rm9ObmErREk3dS84QURYaURXZEcxdWFNb0xrU3BLZ1gwMnNQcCtWZUErTFBDRjdxbmlPNHVKWTIxQzV2WldtbXZKSStYWnZ2TWNjQW5yeFhwSGozeEpvK21KcVZwcFBpTzJ2Ym0xVm5qdGtoSk1oWEdjdjA3MTQ5RjhmdGZDN0RaMkpVY2s3R0JQNjFtN0xjVHU5ajEzUk5DRm5vOWphN2RwZ2k4c0ZTZW5jVmFQaDBPU2l5eUFGUXVHSlBIcDcxNUphZnRCYTVkU3JISG85bEs1NkloSVA4QU90US9IWFc0b3laZkRrZUY2bFhJeFZjNk1lUm5vRS9oKzllQVJNcVRSaVRmdzN6RURvS0o5UDNZTWxoS3h6bkI2RDZETmVlbjlvK1pGK2Z3NlFSMS9lZi9BRnFraS9hUnN6Z1M2RktEM0t6RC9Dam5Ea2FPMm0waVJya3ZIYU1JbUdHajM3RCtCd2NWQkxvMTVkS1d1TGhzK1lKZHVlTndHTW44TWZsWE1EOW96U1hUYTJtWEtEL1pZR2tIeDUwS1lnZllyem4vQUdRYXBUUWNzamYvQUxNbHRkZ2FiY3NmSVhiMTV6ZysxYzdydmk3VzRyalc5UDFmVmRYdjQ3Nk5UWmVYS3FwSEl2M0RJTnZ6S282WUlOVGY4TGY4UFhPUUk3cE1kZDBYL3dCZXF0LzQ0OExhMG1MZ3UrUHVGa0l4K1JxVzc5U290cDZuMXI4QnZqVkg4YWZBT2xlQ3Rla2owL3gzbzBLUTJlczhadVl3VHRIYmR4d1FUNlY0NyswM3AycjZGNCswKzMxbTFFVWtNY3QzdWo1amtBSEJVK244czE1ZHBQaXZSdE4xT0M1MHE2OG05VmxXTWpJT004VjlRNko0aXNQMnBOS2c4QStLN3FQVDlXdGJWbml2RkFXZTVib3UxdlQrOE8vRmNsVERxV3NUcWpXY1hib2ZDODMyeTZKWjVnNWJuaGkyUjYrMVJEUnJxYmlOWkpNOWxqeitlYTl6K0l2Z2pWZmhCNG1tMFhWOU5qU09JZjZOY3h4alpjcjBESWU0cm4wMTFyeXhlRkkwV1luQ29vRzZ1YVVlWFEzVXVmWTg1MDdRN3UzZDdobG1qU1A3b0oyaG05TVZUdWRKdUF6dmVUTnZkdDNVa245YTdQVnJtNDh5T0V3eWg0K2RwQU9UOU0xaFg4Vi9lcXZrMk54TkwzMnhIaW9pKzVidjBPV3RiQ083bmRFZnk1QWVBeDRiL3dDdld4WTZqZTZBendTSXJSTU1sWEpCL0FpcDE4QjY1ZFpaclFRbmdocEdDVnBXM2h5NUVSaDFhOHN3RkhEK1psbHEyMFRabjYzZjhFaENaUDJXdFJjc1R1OFQzcmZNY24vVndkNis0SytMZitDVFZxbHArekJlSkhPbHdoOFIzakIwR0IvcTRmOEFDdnRLcVJtd29vb3FoQlJSUlFBVVVVVUFGRkZGQUJSUlJRQVVVVVVBRkZGRkFCUlJSUUFVVVVVQUZGRkZBQlJSUlFBVVVVVUFGRkZGQUJSUlJRQVVVVVVBRkZGRkFCUlJSUUFVVVVVQU5MWXp4WDVyZnR0K0VybTErT090NjVLdHVMYThXMmpqQmtCa2JiQW9KMjljY2RhL1NnOWEvSWY5dnp4eDRwc3Yyc3ZGV2w2UnA5dkxERmJXUldlUWxud2JkQ1FCMEhKTmJVZEpHVlg0VDUxOFArRzdpVFdMcmJ0SmxuY3lPcVpLTG5qQjdWMS9pR2EzMGV3ZjdZZDJSdGpSQjh6NDZLdnZVK25sUEJuaHFUVU5WY1IzVW8zc2kvZVpqMlgxcFBEV2lYR3AzVGEvck1JRnk0M1d0azNLMnlmM3lQNzN0WGZZNWJrM2dxQ2V6c29yd3M4RXM0SUNSY0NKT2NJQ1B3SnozcnBacDd2VlZraWtrZDRYUXhsRDZIcWZZMXo5eHFDZUhOUkFqdUVOcGNrQ1NESVBsc2U0OXE2R3cxQkxrQjQzU2FQT01vZWxHakNWeGkrSDlmdW9yYTNuOFFUZVJDdUkyQVZaQXZZRmhTU2VBMGt0cEVtWkxsZ3B4TEw4N0Vudms5NjJyYTVnNDgzUFQwckc4VGVLTHJSQlpuVFRhTTgwKzBtK2NwR0JnOThlMU95U3V3VjNzZVkrTi9nL2VlRzlDdnRWc3BEUGNKSGhJWUZ6a2xnU1dQY2tWODgzdWw2amN5aHpaeXFBT1Q1WkdUM3I2NXZ2akZKY2FQcE50SHFHa1FYalRNTDFHSmFLS05RUVpDUUNkdWNZT085Y1Ivd2tkeGNQWXlUM3VpcTBjMHFUaGJlUjJTQWsvdm1BL2g5eFhOT3ozTjRYVzU4NlBwRi9Fd1piYWFOL1ZCZ2ovd0N0UXJhbWloQTEydlBJK2JPZnBYMFBwOTFCUHBhd2FveXl6VzRaNFpiYlMyL2R3N3NyT1NmdnI3VkE4MTdmVGVaSmMzSmE0ZjdaZEMyMHRSaTBqLzFjOGVUeG5BQkZRb0kwUEU0ZkVuaURTN1RjZDV0d2RvOCtIS2craEpIWDJxOUg0aDFxVmR6NkJhWFh5Ynp1c3VTdjk3aitIM3IyQzF1cnVTN2hlK2kxQy9ndmpOcU4xYk5ERkhETmE3Y0pJZ0o0WUFEaXFHbnZjeS8yVUpKTlRjUGJUT1FMdUpCTFk4a1JnOW03NE5QbEdlYi9BTnBhbVlua1BnMngyckY1N01MVW5FZjkvcjBxRTZiNGwxRVF2YmVIN2EzU2FGcm1NUlFnQjQxKzgzWHR4WHEvaHkrMHgwc1UxQ3p1YnU2bXRXOHFhWFYxVkdoQitXTjFBN0R0WE5haERaNk5MZjIwaTJiZlk1aGUyTXN0MitKWWo5K0JNY0VjbmoyRkt6RmRIQjZzZFcwYUcyYS9nZ2hqdTRoTEU2S0R1UTlEeDByQSsxUHlSOG85TUN2VzQzOE4zVnhkYVhjemFZYk9jaTd0cElOOGhWbkhNSzhjWVBHRGltNmw0QjBxem04cHJiYVdBd3dHTTB2WnliM0Z6SG4zaDY0aWoxQzJubWNzVWtRcEVpNTNOa2RUWHB1dCtKTG5TdkZPbHRZenRhWFNONWtjNk1WWlh5RGpQcDdWVDBINGMyU2FyQkwrOFpJM0RiUWZsejJ6VmY0dGVHcjYzdUxiVXJWbWtXRDVtUkI5MDU2L1N0SXhsRVYwZWkrTS9pZjQ3OFk2Q3VrK0pMbTA4UjJpSEtTWE1BU2VJNTVLT3YzZU1ESHRXUjRlc0RmMmkzTmhvOFRYTVo4ckVzeFpnL3VmcHpXTDRkOFoydDNhUjduamxtWkFKRlpzRWV2OHEraVAyVGJEdy9ydzhZMkdxeVFXZ3V4QWJhYVVZS1M0NnJuc2F6cTA0Y3ZOY3FuTnhmS2syMzJSNS9wUHd3MSs2UUNFVzBVc3JaWXh4QnlENlpOVjlXK0gxN1lTTkRkNmhkQno5Nk5QbEFOZlZOcDRiczlEMUdTQ2N3dGNSOC9hTFo4cVFPbVIwRlluamkyMFBWckNSaXltN2pHVk1XTXZYQzZhM1RPaHljSHl0SHl5ZkJXbHFxaTQrMHlzRHlYbFBORTNnNnh0aHZ0N0tLVkQxY2pjUVB4cnVyKzJXM0RHZU1CQWVyTU92YXVjZlgwc2JncXp3aU05QXB6V01ybzFpK1kvU3ovZ21SWnJZL3M2M2NTSXNhZjIvZGtCUmdmY2lyNjRyNVYvNEp2WHNWLzhBTHlXSDdwMTI2Qit1eUt2cXF1bUtzam5idXdvb29xaEJSUlJRQVVVVVVBRkZGRkFCUlJSUUFVVVVVQUZGRkZBQlJSUlFBVVVVVUFGRkZGQUJSUlJRQVVVVVVBRkZGRkFCUlJSUUFVVVVVQUZGRkZBQlJSUlFBVVVVVUFOSTY5Ni9Kejl2SHg1cEhoejlxSHhQYnZwc2wxZm1HeUxTcEdTRkgyZGU0L0N2MWtQQXI4MnYydVBnM2NlTC8yai9FbXIzZW0zOXhwc2x0YW1PUzBna2JjVmdVWXlvNTU3VnJTZG5xWnpWMVkrUWRGbi93Q0V0MVI5YjFHS1QrejdNbjdGWk1oS2J4MVpxMzlYMURVTlFqY1dLR0tTVGg1ZitlWS92ZjhBMXE5aHQvQk90V2VrZjJURm9kK2JJeERZN1dNaXNyZHdmbHJ4MzRnVy9pWFF0WUZ2RjRYMXFXMWFJWmVEVFp6dVBvY0owcnR1Yy9JekQxVHdIQmJocDVyMlNTZG9sZEVQUnF3L2hKcU16K0lkV1dCWGxpSUNJU2NoV0hYQXEvNG91ZkZXb3d6WEZ0NFUxNk9RMjRoalgreXJnN0NGMi8zUFN0NzRGL0RqeFJiYUY1MTM0YjFlQ1I1QzM3elQ1bFlqL3ZtalR1Vnl0eHVkOURFOGtmQ3NwOWE0Zng1ZE5wVFc5eElYWHkzVmd5cXBZZk1CL0Z4M3IxbUx3M3Jha0ovWW1xQSt2MkdYSC9vTmVlZkdmd1g0cVRRcHBJUERHcVR1U214RzA2WjFPR0JPUUZwVGQxYTRRaTBlWWVLTmNqT295WHhudkxpMHVMWXdYVVJrZ1ZwSThqQ2phT01jOGU5WXAxeDRmS1NTNmFhU08xOHU0WVhnQXU0ZjRZbHdPM3BWT0x3djQ2dGJtNHVVOEkzMFVsekhzZFJvZHd5cjlQazcwMCtHdkhDV3R2YXA0YTFxTzJ0RzgyM0tlSDV0d1lkTW5aeUs1bTBibHFIWDJFbHFHdVRjelF4RTcvdEQ0ZUh0YmtZN1VSMzBzZjJNcEJKKzdMem9kMHJiVU9mOUhQcW1mNlZJMFh4VW1JMmFQNGdqR2M0aDhQeXJqM0h5VkpGb2Z4WnUyQS9zcnhnNDYvdTlMbFRKL3dDK0txNkpzUUF6eldkbXE2ZTRSWm11WGNXMHJHMkk1MlpKNWo5cXByY3lHd3RycHJKWTRMbTg4NHVsb1BrYitFSVNlaC91MXZ3L0N6NHk2dVI1T2dlTkp0M2VTMmRjanV2STZWZnMvd0JsUDR0M3NmbER3UDRnUzNKM2VYY0Znb1A5NnBiN0ZMek1QU0wyNnNkU3ZvTG0xblc4TzY2bGhqaWhSY0hveSttUU9RSzdEd1ZyZmgvVUxHNHZmRWRsSGMyMGNiVFFUM1hsczRLL2VWVlh2VDdYOWlUNHMzaitZL2h1V0tUR1BObWxrM0VlbkFyYTBiOWhYNGtXVjJ0d3RuYTJUS3BHMW9wWmNaN2RPYUZOb2h4dXppN1g0aWFKcDNpMmRYMDNSNU5DVlJjMnpSeGhaTmhIM2Zkc2l2VlBoYjRVMHY4QWFCczlUUGhpTHp0UzA5Zk5OcEt5aGtVbkFQSjZackx0UDJCdkdEekh6cDQ0NHM3aXlhYkl4QjdqcFhlL0JiNFBlS2YyYlBpQ2RkMjNlb1d0OWJ2Wk1ZTk5rS3hzM1JuVUx5UDVWYW1Ma05QUnYyS2ZIUnUxbm0vcyt3aklCS3l6NUlQMEFOZGMzN0M5OXEwR0wzeFBiV3dQM3hCYUY4L1FuRmRwclh4enZOS0xSM2wzcVVVb0ErUzAwZWRoakFHT0krYTg5MXY5cGVGQzRUUy9HdXBNT2doMFM1QVA1cFZlMVd6QlV1bzEvd0RnbkI0Q2pmejcvd0FTYWkvL0FEMFdNQ0lOOUNPbGJ2aVA0TS9EWHdKNGZnMDdUTmZ0cmZVWUhSU3R4ZUs4cnI2WUhKT0s4dDFEOW9ueERPa2tsaDhLdkdGM3Q1MzNObE1vL0xiWEkvQ3U0MXp4YjR5MS9XcnJ3SHFXblh6Um1XMnQ3Mnh1V3czY2dsY2RLNDY5UzZTakU5akw1Um9WSFVuTFZiSDBkYWFEOE1yblFYMGZVZGVuc05ZaTh3aS90SkQ4d0l5b1lIanJqdlh5dnJkL0xvOXhlUU5xRDNBamtZTEp1eHVRSGcxMldtZUNmRld2cmNTNnBaNmxwcTNNek1xSFRaVEkvUFhJVGdlMWFFWHdVVzBETmM2SnJOL3ZJTzU3S1lqNmZkckJKdGRqbXExbldxT28zZTU0cEJlRzUzT1hsdVM1SlB6SEFwMXZwVTk5TnhFVVVqY0MzSVA2VjdiUDRSdTdKUHM5dDRYMUNDRWRBdW1Ta2svWGJXREg4SnRlTTNtUmFicktwaklCMCtVQUgwKzdXY28yUktrZmZuL0JOcXhmVGYyZmJ1R1RHNDY3ZE54L3VSVjlXMTgxL3NEK0hydnd6OEZieXp2TGE2dEpqclZ6SjVkM0dVY2dwRnpnak9PSytsSzZJN0dUQ2lpaXFFRkZGRkFCUlJSUUFVVVVVQUZGRkZBQlJSUlFBVVVVVUFGRkZGQUJSUlJRQVVVVVVBRkZGRkFCUlJSUUFVVVVVQUZGRkZBQlJSUlFBVVVVVUFGRkZGQUJSUlJRQWg1QnFQWXk0QTZDcGFLQldHNFB1S1RhM3JUNktCak1IM293MlBmM3A5RkFEY0gxcHUxdU9UK2RTVVVBUWlaUUR5VGluZWFBdVRnQVY1bjhRZkdWenBQaUNDMnQ1bWh0YktGdFF1dktBTFNBSGFzWHRrMWEwNzRxUUxhM0RhbkFiZVMxZ2psbmtpNVFNNHlJeDN6WGdMTzhJcTg2TlI4dks3WGZYL2hqMGY3T3hIczQxSXE5ejBIejF3VG5ORFNBSDd4QlBhdURzL2l2cDkzWTNzejJWL2EzRnFnbWEwbmkyeU5Ibjc0QjZyV0ZmL0V5N2JXSUpvQUliTzN1RUUwUzRZVFF5QUJYejJJT2Z5cVo1NWc0cE5UMy93Q0QrVmgwOHZ4RTIxeTJzZXJyS0dJNU9UMnI1djhBaWQrMEJxL2lUNGpYSHc4K0crcFdkaHJHbDI3NmpxV3I2akF6d2tSamNiZUpmNHM5R2NmZDl6WDBhaXRMQUNEMUgrVFhnL3hjQi80WHY0ZFhHTjNoYlZNbGZwWDBsSnFWbWVUTzhVZGIrejc4Zk5LK08vaEQrMExXTnJMVnJWakJmMkxaSWprSEJaRzZQR2V6RCtsZXBMOHd6a212TFAyWmZNbCtBM2dwK0Ivb2Z6Y1p6aVJnTzllcUl1MFk2Ky9yU2x1eW91OFUyR0RuL3dDdlNGVGtFRSs0cFhrVlB2SEZjM3IzeEo4TmVHL0RXcmEvZTZ0Qi9aT2xUTmIzczl2bWJ5SlE0alpHQ1pPNE13QkdNalBOU1VkSmdqM3BDR3p4eCtOVkcxdlQxMWhOSmE5Z1hWSGdhNVN6TWdFelJLeXEwZ1hxVkRNb0o2WklGZWJYbjdWM3dkMDd4TnFYaCs5K0pQaHF5MVhUUXYycUc1MUdLSVJzV2RDbTVpQVhWbzJESUR1WGpJR1JrRWVxRU1TT3dwQ3JBNUJKUDE0cml2aHY4Y1BBZnhmT29yNE44VmFaNGhrMDZab2JxT3huVjNoS3V5Ym1YcnRMSTIxdnVzQmtFaXJmL0MxZkRUYURyK3NwZlNUV0doWGR4WmFnOFZ2STdSVFFFQ1ZRZ1hjMjNPU1ZCR01ub0tBT3BBZmVQVDNOUCtiTlU3TFc5UDFLd2l2clM5Z3VyT1dJVHBjUXlCNDJqSUJEaGh3VklJSVBUSE5ZK2hmRW53MTRtMXFYUzlLMWUzMUM2anNMYlZNMjUzUnZiWEJrRU1pU0Q1V0RlVStOcFBRSHVNZ3pwT1QxNCtsQkI5ZjFybHJyNHFlRk5QWHhOSmZhNWE2ZmIrR25pVFZycTlmeVlMVXlScEtoYVI4TGdwSWh5RGo1c2RhNCs3L2FzK0Z5eGh0SzhVUmVMWk0vUGIrRW9KZFptaVhIM3BJN1JaR1JlMjVnQVR4bk5KcTRIcTRWdDRQYnVRYWtybmRjOGY2TDRhOEQzZmk3VkxpU3gwTzBzVHFNODAxdklza2NJVGVTMGUzZUNCMVhHNEhqR2FsMUR4dG8rbGF6b3VsM2QwWUxyV1JJTEV2R3dqbVpGREdNUGphSEs1WUlUdVlJNUFJVnNNRGRvcHF5S3h3R0JPTS9oVHFBQ2lpaWdBb29vb0FLS0tLQUNpaWlnQW9vb29BS0tLS0FDaWlpZ0Fvb29vQUtLS0tBQ2lpaWdBb29vb0FLS0tLQUNpaWlnQW9vb29BS0tLS0FDaWlpZ0Fvb29vQUtLS0tBQ2lpaWdBb29vb0FLS0tLQVBHL2lmb01qZUt2TUNNc09xMnB0RnVGQklXWlRsQVFPZ05Wcmp3UGNRNlBxRnhyTjNhNlBGZHBGTVhjN210N2lNY0VaNFpmYXZZNW9sbCs4b1lBN2hrWndSWG4zeENWTlk4VitGOUVkUkpETE0xeEtoSEJDanY4QWpYd21ZWlBTcE9yaVdydVQ5MWJXY3ROYmRENlBDNCtwVTVLRWRGSFZ2eVdwenVpYVkzakJkUnVZZkVtbjZqcXIyMzJTTVFRRlZqUS9lSlVuTEUvbFdkZWVFYjYyMWlQUzJoSWx2R3Q0WS9MeXdTM2lPUzdIcHljOFYySGlPMGg4T2ZFTHczZnd4SkJIYzc3U1Vvb1VOa2ZLT085ZWhORi9xL2w1NkZzYzF6VU1scFk1U3BWZEtsT1dyV3pUU2JldDkwL3ZSVlRIVG9xTGc3eGt1dlQ3dXhZaFVyRXE5Q0JpdkJQaTUveVhydzcvQU5pdHF2OEFLdmU0dVY1cndQNHUvd0RKZXZEdi9ZcjZyL0t2MFNtbHBZK1VxdThiblcvc3ZmOEFKQXZCbi9YbWYvUmoxNm5YbG43TDMvSkF2Qm4vQUY1bi93QkdQWHFkTjdzMGo4S0lwaVIwSFBZNHppdnp0K0pYaEx4QjRoMUw0ajZoWTZIcTF6NFRmeEZxb3ZiTFJaOVZsdDkxdk1QTW1uUk5WdDR3N2xkK0k0c2NldGZvaGNSbGlyQUU5aUIxK3VmYm12blUvc1llRTlaMEx4YmMrSTlJMDdWdkdQaU81dnIrYlVRWmxpZ251TTdWUUJobEUrWHFNbkJwRkhOL3NpZUQ5ZHU5WnZ2SHV0MjJyVEpQbzYydW5YR3QvYjJubXQ1bVNmTVF1ZFJ1bENOc1FrWVJzN2NucUs4ZCtJK29lSlBpaDhhUEVYakR3ejRROFhhRG9hV1Zqb004ekk5djVsL0ZOTzBpRTJtcVc2dVFiaUpNbHBQbkxJTnJLd1AxYjhKLzJXL0JYd3EwdlFackR3OVlyNG4wL1RFc3B0VWplWUNhVHlCSEl3VXVjSzUzY1k0QjlhOGQrSm43SW5qYjRuNlBwbW4zK2dmQzZ6WFRUWngyazFzdXBaamd0N2haaENGM0FiWHd5c2V2enNjNW9BdWZzaTYvTjRjOEgrS2ZoOTRxOExlSjlBMXJUcDlUMVRVOVZ1SXRnK3ozRThrMFRySUxpVzRaMmprSlZnWElaWFhlWFUxNWI0UThLZUJ2RW53OThVYXRxa09vMy9nN1RmSHVwU2Y4SkY0dGp2Tlc4bUIxVkM4Tm5Lc2pTU0VBb3p6b0FqWmNoaU0xOU1mREg0U2VNZkJWM1orZG9Qdy8wNjEwcXd1NGRMYlJ6ZkdXR1dWZyt4bWxKL2Nzd3l3NUlQM2FxYVI4Sy9pdDRlK0czaUhTck84OEd5ZUlmRXVzNmxxT3BTVExkaTBoanVsd0ZoMi9PV1U5UzNGQUhFZkNqd0Y4UDllMVR4enEvd0FMTFhTTERTYjNRWHRMZlZyVFRielIvc1ltQ09zVElpd200aVBsK1lzeU1KRStaZDVEcnQrZWZoako0QXQvMmhZcjYyVDRZcHBqMm1oTlkzTnA0RDFLQ0JwSkx1NVZEYWxueEJNNU1ZRXprbzVNUUgzR3o5eGZCN3dYOFJ2RFhoYXc4SytMNS9DMDJpYWJvMFdsMnR4b24ya1hMdEhHc1FkeEw4dUNvSklIZkZjWkYreUxjUXZwMm54ZUxKYmZSTERTL0RPbWdyYUkxeGRMcEZ6TmNBUG41VUVqUER5dkkyTU9ob0E4OS9ZNjhRMjNoLzRSZU9kVzFDWlZndDlQMFIzbXVMYVc3QVA5ajJvVXZGR0M3amNSa0x6L0FEcnpqNGMvRzdVSVkvRThHcmExSGJYOTQvMjI0aTAvd2xxMmxlSWRlV000VmQ0RXkydHRuYkdqSU00NmVVeE5mV1BnRDRSZU1OTGkrSWQxcTJzNlZvZXIrS0wyM2x0NXZETUQrWFlRdzIwVnVBb20vakt4SG5HRkxaSFNxbWgvQUhVRDhROVZ1ZFpmVFI0TVh3ODNoelRMQ3hsdWZ0alF0Y0xNMHM4ckgvV1pVOG9lcHptZ0RndjJpUGlIcEh4TitDM2dUeFY0VzhRYTFvOXZxdXFwUFk2aGJhTzEzRGJ6SWtvWnIrMU1NcEloZEdJWGJuem9rQVplSEhsL3hZOFEyL2hmeDM0ZXQ1cjc0dTMya3llR0lsc05WdHRXdVZoMXU4WTJsdkRjdEN0M0E4WGx2TkNKQmhESTkyMlF1emNmcnkrK0d1dlMrQ2RNOE8yWGpiVWRNTU1yQysxUzJ0WWhlWGx1UytVM2ovVlNrTXY3NVJ1M0tXeGxqWEZheCt6aHFIaVRRdGVmVTlkZTc4UjNBc0lkT3VyaDNtamh0N0M3VzV0VWxMZk03eU9tNmVRWVk3eUJ3aVVBZGY4QXM4czExOEl2Q3Q3Slo2M3A4dDlhaThrc3ZFZC9QZTMxdEpKOHp4U1NURXlIYVRnQW5nY2RxOU5yaHZoTjRmOEFGMmgrR1prOGNhdGFheHIxeHFOMWVNOWo1aHQ3ZUtTVm1pZ2pNbUdLeHFRb0o5SzdtZ0Fvb29vQUtLS0tBQ2lpaWdBb29vb0FLS0tLQUNpaWlnQW9vb29BS0tLS0FDaWlpZ0Fvb29vQUtLS0tBQ2lpaWdBb29vb0FLS0tLQUNpaWlnQW9vb29BS0tLS0FDaWlpZ0Fvb29vQUtLS0tBQ2lpaWdDRXRrSGpIT0s4L3RrL3RMNHlYTGo1NDdDeENEMFYyT2Y1VjMwaHdXOUJ6WGgybStNMzAzeFRyOTdCcU9rMnNzMTgwVXlhaElRMnhlQnR4WHltZDRtRkNwaDFPOXVkTjI4azMrWjdHWFVaMUkxWEY2OHR2dk8zK01VQlR3NWJhZ3YrczArNmp1TWpzQWVhN20wblc1Z2lsWDdraUJ3ZnFNMTRoNHU4YjZscitpYWpadHFuaHA3V1NNNENYTEdUQTVIWHZYcC93NnZ6cTNnblNMcHlTejI2ZzU5dVA2VmpsMk9vWXJNYWlvcDJjVnV1cWIvek5zWGhhbERCMCtlMTFKcjc3ZjVIVHJqdDByd0g0dS84bDY4Ty93RFlyNnIvQUNyMzFRQlhnWHhjL3dDUzkrSGYreFcxWCtWZlp4MGVoODVWK0U2MzlsNy9BSklGNE0vNjh6LzZNZXZVNjhzL1plSS80VUg0TS82OHovNk1ldlU2VDNMajhLQ2lpazZVaWhhS0tLQUNpaWlnQW9vb29BS0tLS0FDaWlpZ0Fvb29vQUtLS0tBQ2lpaWdBb29vb0FLS0tLQUNpaWlnQW9vb29BS0tLS0FDaWlpZ0Fvb29vQUtLS0tBQ2lpaWdBb29vb0FLS0tLQUNpaWlnQW9vb29BS0tLS0FDaWlpZ0Fvb29vQUtLS0tBQ2lpaWdBb29vb0FnSStjZzFrVGVGTkZtbGVTVFNyUjNjNUxOQ0NTZmV0bHlxYmlXQzhaSmJvQjYxNDk0by9hVjhQNlpyRjFwSGh2VDlUOGNhdmJuYlBCb2tQbVF3Tm5rUE1jUnFmYk9henFZZW5pTEtwRk93MVVuVC9odXg2S1BDR2liRG5SN0lBOGY2aGExclcyaXM3ZFlJWTFoalVjSWd3QjlLOExIeHorSXhjekg0VC91TTU4azYvYmVkajg5dWZiTmM5NDUvYTl1TkIwKzEwMy9oRDlROE1lTE5TbUZ2YU40Z0dOTmlCUE1zbHpIbENCbmhBY2tsUlJEQlU2VHZUZ2s5dExEblhuVStLVGZ6UHBvN2lDQjBKeDA3VjhsL0dHYnhQOE5QaktQRmZqSzd1Tlo4RFRhVGM2ZHBjMm02ZHVtdHJpVVlFRXF4OGtzMzNXNmV1SzA3bjRYNmo0cVAycnhuNHkxM1hiMXVUQmFYSnNiU0hQVlk0NCszb1NhYkg4SDEwTWlmd3I0cTEvdzdlZ2dwdnZUZDI4aEJ5QkxGTGtNT21lUml1dUVWQjZzd2w3eXNkbCt6Sm9maTc0ZC9DZTAvNFdCck5wWTI4YUg3TFlTSkhDTEdBc1dRU3ljWmt3Zm01d0s3cTArT0h3OHZMNzdIQjQzMEdTNUhHd2FqSGduMk83QnJ3SHczNEk4UWZGQ0dQWC9pN3MxTFU0cFhTMDBOQ1VzTFdOV0tyTDVRT0hkd054M1pBQlhGZHhkZkQ3d3RmV1lzNWZET2p2YThBUmZZSVNQYm9vUDVkcUhHTGQyeHJtU3RZOTZOMUNiYzNCbVEyMjN6Qkx1R3piak9jOU1ZNzF4ay93QWIvaDlhWDMyU1h4dm9DWEFPTm45b3g0SDFPN0ZmTjJnL0FtZWJXOWF0dFoxQytUd0NMbnpkSzhJMjk5STFwdTJqZEk1emtxV3ppSU50WDhjVjZSYmZEM3dyYVdnczRmRE9qSmJBWUtOWVJZK3B5dk5MbGozSGVYWTk1MHJWN0xXck5idlQ3eTN2N1YvdTNGcktza2JmUmxKQnEzbXZrN1dmaDFQNEE4N3hUOE5tSGgvWExNRzRrMG1KaXRocWFLTXRESkZuQ2xsemhseGc0TmUyL0IvNDErRS9qRjRlczlUOFA2dmIzRTA4U3l5MkJrSG4yemxjdEc2ZFFSM3FKUjZ4MUdtK3A2TFJUVklPYWRVRkJSUlJRQVVVVVVBRkZGRkFCUlJSUUFVVVVVQUZGRkZBQlJSUlFBVVVVVUFGRkZGQUJSUlJRQVVVVVVBRkZGRkFCUlJSUUFVVVVVQUZGRkZBQlJSUlFBVVVVVUFGRkZGQUJSUlJRQVVVVVVBRkZGRkFCUlJSUUFVVVVVQUZGRkZBQlJUUUs4aCtLZnh0bDhNK0lGOEorRnRJWHhONHZuaE03VzBrL2sydGhFZUJMY3lZSlVFOUVBTE5nNDlhYVYzWVRkakQvYUIxM1VmRS9pblIvaG5wVjlQcHNHcFc4bW9hNWUyemJKRnNsT3dRSTM4QmxZbGQzWUsyT1NLbjhQNkRwM2hqU0xiVE5Kc29OTzArM1VMRkJDdXhJOERxZjd4OTY0ZlFQRHZqcTQrTDF4NHU4VTNtaWFoRGVhTWxpMGVsMjhrSGtORkt6b2dWM1lzRDVqa25kMVVjVjZPZWU1UDFyU1Y0clJrdzFlb2ZtUHFNVkRlV1Z2cWRyTGEzbHZGZFcwdkVrTTBZa2prR0RnTXA0UGZqMXhVM3JTZ2Qvd0NFQTVWUUNSMDU1Nms1QXhXUmRsMlBFL0hIeE1nc0l2aUROWStNbTFUVHJBV0VCMC93emVXcjZ4cGQvSmMvWmpFUE1YeTQwWW1QaVhPRzg3dHR4NTMremY4QUVIeHhxUHhXL3NmeGxxbmk2NHRuazFIVExDUFU1ZE1lM3VibXpZZmFKWlJicnZnZFF5cXFBdkdUaytZYzREdjJnRzA3eEZyL0FNUUlJcnZTVnR0UzAzUmRIVzYxUmtUVHBidTAxVnA3dUNTUnlrY2hqaW1VdEdIQlliMFVsa2NMeFg3UEhoelR2Q3Y3UW1qU1JYWHcra2lrdmZFRHgzSGhRMnNNc2tjN0t0c2dIMnQzZFdDbG80ZG55TDk1aWVBQWV2ZUpmanJyZHo0dThXWHZnK0dEV2ZEL0FJYWd0YkM1dG1XNlVYVTl3WGI3VENZTGVaMzhzeEdQQ3F5TnVZN3ZsSXEzOENmaXo0NzhZYW5aYURyK2tXVWtWckEwdDNyTHc2bmFUU1JxY1JrSlBaUXh2SnlnYmE2NXc3aGNZVWNaOGVKN0swOFEvRXUzdjNqZzA2NjFQd2JaM3NwMDZPLzh1Q1I1MWRrdDNqbEVqNE9SOGpIMEJwM3dEMC93bDRaK1BOdHAzaEhVNTlUdHIzdzVlM0Y0OTM0U2gwaWFKNDdpMVdNSTR0SUdkU0pIeXZ6S0NGemppZ05UNnF4Zytuc0FRUHd6UlFja2trQUhQTzA1SDRFOC9uUlN1R29maHVJemhXR1ZPUmdnajZWeG5pUDRTZUh0Y2lqbTArMVh3M3JOcUNiTFd0SVJiZTV0WDY3Z3kvZnllQ2ovQUNrWnowcnM2eC9Gdml6VFBCT2hYT3I2dE0wVm5DQUNxSXp5U01UOHFJaThzNVBBSHJWeGswN0xRVDJPeStBWHhBMUR4OTRObS90dU9PTHhIbzkzTHBXcGlIL1Z2TkUyUE1VZFFIR0hBN2JxOU1yNXQvWkIxNHp0NDNzOVkwMlhRdkdGN3FqYTFkYVpPd09MYVlBVzdJdys5OGlCVy8yMWF2bzlEL0x2MXB6WExJUzJIMFUwZFRUcWdvS0tLS0FDaWlpZ0Fvb29vQUtLS0tBQ2lpaWdBb29vb0FLS0tLQUNpaWlnQW9vb29BS0tLS0FDaWlpZ0Fvb29vQUtLS0tBQ2lpaWdBb29vb0FLS0tLQUNpaWlnQW9vb29BNHI0MGZFUmZoTjhMdkVmaTU3QnRUWFNiVnJqN0dzZ2pNMlA0ZHg2WnJ6aTIrS0h4enVJWTVrK0MrbHNqb0dYUGk2SGR5TS93RFBLdFQ5c3RDLzdNSHhFQzlScGNqRDhNR3ZXTktHZEdzOEhERzNqNTYvd2lnRHhuL2haZngyL3dDaUs2WC9BT0ZmRC84QUdxUCtGbC9IYi9vaXVsLytGZkQvQVBHcXo5Qy9hMms4VTZjbXBhSjhMZkhHcjZWSkk2dzMxclpSdEhLRmNxU3VYNlpCclIvNGFXMW4vb2pmeEEvOEFJLy9BSXVqY0JQK0ZsL0hiL29pdWwvK0ZmRC9BUEdxUCtGbC9IYi9BS0lycGY4QTRWOFAvd0FhcGY4QWhwWFdmK2lOL0VEL0FNQUkvd0Q0dWsvNGFWMW4vb2pmai84QThBSS8vaTZRZFEvNFdYOGR2K2lLNlgvNFY4UC9BTWFvL3dDRmwvSGIvb2l1bC84QWhYdy8vR3FYL2hwWFdmOEFvalh4QS84QUFDUC9BT0xvL3dDR2xkWi82STE4UVA4QXdBai9BUGk2WUNmOExMK08zL1JGZEwvOEsrSC9BT05VZjhMTCtPMy9BRVJYUy84QXdyNGYvalZML3dBTks2ei9BTkVhK0lIL0FJQVIvd0R4ZEgvRFN1cy85RWErSUgvZ0JILzhYUUFuL0N5L2p0LzBSWFMvL0N2aC93RGpWZWMvQ25VTllIeEsrSXRwNHkwZUx3OTR5MUsvaTFNMlF1MXVkMWtZa2ppOHVRQUJ3akkrUW80Myt0ZVQvdFgvQVBCUXo0Z2ZCSDRoZUNEbzN3OTFTeDBxL2huKzE2UjRqdGhFOTZRd0NtRjBabVJoN2c1ejByMER4OTQ2ZjlvclEvaHNIOEhheDhPL0YrclR5M2NkOXFjUmp2dE10SUFyU3RFVis4SkNVVUJoajU4a2NWclRWM1ltUjdkbk9EeCtGRmNKNGM4QytLdEMxUzBsbStJRjVyR2t3WlY3Ty8wNko1WnVHQUJuVmhnaksvdzlxN3NqQndRUVIyTlRKV2RyM0xUdjBDaWlpb0VlWCtKUGk3NGVzdFcxM3crZkJmaUx4SEZvazZEVUp0UDBGTHF4dDVtaUUvTE13RzRwS0dKeHh1Sko2MVIwL3dDSzNoRzM4VWFKcDAvdysxN3cxZTZuZFJXZHBlWC9BSWRpdGtXYVVONVo4d01XUU50WUJnTVpHSzh3K0l1THZ4SjhWOU5zSTc2ODhRWDJ1aUJiSFRwTXlTYWMyaVduMjd6SStoVm8xRWFOamlhU0hrRGNEbGFEcDFzL2p2d1JxZGpwK3VRK0c0L0VPajZiNGQxSFVENXNhV01VdHdUQ0pEekkzbTduajVQN29nRTVGQUgwamErUE5LMURVUEZiTFpSZlpkRGpTVCswbk1TeFhzaUtXa01aUFF3RUloWTVBYVFZT2NpcS93QUxmakY0YitNZW14M3VrWE8vVlliTzNudjlObVZ4ZGFjWmh1Q1NiMVgrSkdCeDFLZXdyd08wOERXUHcwMFQ0aWVKUEVYd3NYVExsVk53eXo2eWwzcHR0YUxjYndxVzhjenpHTXNSY1NMNVk4eGh0Q2NZUGQvQXJ4QTFyNHExYnd6YTZYckdxSUk3VzR2OVoxN1Q1Tk12N05HUmtpV1dHNVlQTkEza01JdktMRkJ1RDRJTHVBZTlaeUFRTURvTWRNRGlzM3hKNGwwL3dqb3R4cXVyWEgyWFQ0TWVaTHRaZ3VUakpDZzhWcHNTV0pZTUdQWGQxSHNmcFNNb2NiU0ZLdHdRUi9qd2ZvYXBXNmdWTkoxZXgxL1RvTlEweTdodnJHWVpqdUlHREkzMHh4L1gxcXpKR2tnWGZHcmhUdUc1UWNFQWtFWjc1eFhrZmlEU3JYNExlTWRJMXJSWTAwM3d4cmwrdW5hdnBTTnN0b3A1VGlHNGpCNGpiZmdOMEJERTlxNkhVdmpEcEUyb0RSL0NzTW5qYnhGS0Q1ZW42SklyZ2RSdWxsKzdDbWVDeFBVREZVNmIwYTJNM0xXeG0rSnZEV3FlSy9qOTRTc1BEdmlTODhKNmlkRHZwTDdVdFBpU1NUeUJKRjVTc3JnakJjeVl6Nkd1OFg0TWVPR3UvczMvQUF2bnhDSnl2bUNBMk5sdks1eG5Hek9NOFpyTTBuNEorUDdYd1Y0bzFheThVMldpL0ZqeEJHcUxxalduMm0wMDJGQWRsckVwSU9GSk9Yd1NXSk8wMThzL3N3L3M0L3RPK0NmMmovRzE5NHI4WWZZOVF2Tk1WWXZGT29XZjlyMmw2dm1nK1hGbDA4b2o3MjNBeDZVVGQ5Q2xzZlg0K0JQeEJCLzVMcDRsNS82aDFuLzhSUy84S0srSVAvUmRQRXYvQUlMYlAvNGltbjRlZkhjSEErTVdoZlUrRDEvK1NhUCtGZS9Iai9vc2VnZitFZXYvQU1rVm1VTy80VVY4UWY4QW91bmlYL3dXMmY4QThSUi93b3I0Zy84QVJkUEV2L2d0cy84QTRpbS84SzkrUEgvUlk5QS84STlmL2ttZy9EMzQ4ZjhBUll0Qi93RENQWC81SnBYV3dEditGRmZFSC9vdW5pWC9BTUZ0bi84QUVVZjhLSytJUC9SZFBFdi9BSUxiUC80aW1mOEFDdmZqeC8wV0xRZi9BQWoxL3dEa21sLzRWNThlQi96V0xRUC9BQWoxL3dEa21tR2oySGY4S0srSVAvUmRQRXYvQUlMYlAvNGlqL2hSWHhCLzZMcDRsLzhBQmJaLy9FVXdmRDM0OFovNUxGb1AvaEhyL3dESk5ZSHhDMGY0OCtCZkF1dmVJbCtMWGgrOWJTN0tXN0Z1M2hFS0pOaWs3U2Z0SEdjZGFBT2kvd0NGRi9FRWMvOEFDOC9FaHgyL3M2ei9BUGlLZy9aNzFmeFZiL0VING9lRXZFZmlxNjhXUStIcjZ5aHM3Mjl0NDRwZHN0cEhLd1BsZ0EvTXhyMUQ0YzYvYytKL2gvNFkxaTlLbTcxTFRMVzdtMkx0UXlTUkl6WUhia25pdk1mZ3h6KzBSOGVPL3dEcCtsLyttK0dnRDNlaWlpZ0Fvb29vQUtLS0tBQ2lpaWdBb29vb0FLS0tLQUNpaWlnQW9vb29BS0tLS0FDaWlpZ0Fvb29vQUtLS0tBQ2lpaWdBb29vb0E4Yi9BR3hUajltTDRqSC9BS2hFMzhxOVYwY1owbXcvNjRKLzZDSzhtL2JNSkg3THZ4SklPRC9ZODM4cTlhMFgva0QySC9YQ1AvMEVVQWVPZnNYZjhtMitFUFpiZ0Qvd0lrcjFmeFJyaStIZEludm1HNFJnY0U0SDUxNVIreGYvQU1tMitFY2YzYmovQU5LSks5ZzF2U0lkYTArYTBuTExISjNUclhQWGpVZEpxbDhWdERTazR4bW5QWTV1MStKbWwzRVNsak1rblJ3RjNlV2NjWklxMzRjOGFRZUlkU3VyT0tKNHpDb1pXay9qSHJYSzZ0bzl0YTNWMjFyYndtMjBwVWJ5akdyZVlUMU83cURpdXc4UGVIZFAwcTVlOHMwd2JwUm5IUUQycjVuQTE4ZlZyS001Sjh1L241bnFZaUdFaFRiaW5kN0hTVVVVVjljZU9GRkZGQUhPYXI0SDhQNjU0azAvWHRRMFd5dnRaMCtONHJPOXVJVmVXM1Z1VzJNUmxjNDdWNS84ZGZoOXEydTNPaGVLdkRNYTNmaWJ3NTVyeDZmSXdVYWhiU0FMTGI3aVFFWTRWbGZzeWpQQnIyTEFQYWtLS2Y0UjYwMDdPNG1ybnl4Wi9Icndjc2d0dGMxSC9oRWRUQjJ6YWY0aWpObExHZTJUSmhXVTlpcElQcWE2VHduNDgwRHgwbHkrZ2FsRnFjVm8vbHlYTnVyR0lFOUNyNDJ1QjdFaXZkcjNSN0RVZHd1N0szdWdldm5SSytmekZlRWVKZmdkci93KzFYVWRhK0dIMk43QzhrKzBYZmcrOVBsVzBraFB6dmJTZ2Z1V1ljbGNGU2ZTdFU0dGVabXVaSFFZd2VtUHJSWG5kejhZdjdEbUZ2NG84SGVLZkRkd0I4Mi9UV3VvU1A4QVlraEw1K3VCOUtFK09lZzNyS21sYVg0ajF1Yy9kanNkRXVBWFBHRXpJRVVFOU01R1BXcDluSXZtTnZTL2h0b09sNjk0dzFiN0pIZFhYaXFTSnRVTjFHamlTTkxkWUZoSEdUSHRRa3ErUmwyNDVxSHhSOE5ZL0ZmaVB3dnFOeHJHbzJkbDRmdTRieUxSTE5ZZnNzODhXN3lua0hsbC9sREZkcXNxNDdHdVk4Ty9FbnhCNFoxVzRzZmlicEZ4NFd0dFZ2SGJRNysvQ0xFMGJjcmJ6UEg4a1VxOUJ1T0NBT1NhOVdqY1N4ck1zZ2VOaHZWd3cydG5vY2lrNHREdWp6N1ZmZ1A0UjFUd3g0bDBjV00wRGVJN1dXeDFEVjFtZWEvTVVqQnZMVzRsTHY1WUl5c2ZDcmo1UUt1ZUF2aERvUHc3MS9XZFcwYWJWRFByVU1Gdk9OUzFLZStIN2p6aWhqZVl0SXB4TTJWSngwd29PYzlzc1FZQmNFa2dxUXZVZysyT2g5cTgrOFllT2J2V2RRbDhIK0JVajFueGZkTDVUeVFreVcybEtlUE91WEJ3TURKQ0E3aVY3VWxGdmNUZHRqcnZEbmlUVGZGdWtRNnBwTno5cXNaU3lKSUZLNVpTVmJoZ0NPUWVvclMvdlk0T091TTU5c1Z5K2hmc3JhcDRIMGF6MDN3aDhTOWEweTJnakEreTMxdkJmUUZqeTVYekVMTGs1T0EySzBoK3pacmV1TUl2RlB4SzFyVWRQUEVsaHBjTU5nc3E5MWFTTlJKZyt6RGlxNVk5V0xtZlk0enhmcHRuOGFmSE9oK0FiYUdEVmRJc0w2RFZmRVorV1cyamhoWVBIYnVjWUxTT0ZHMzBCcjZYOE4rR3RKOEsyUnN0STB1ejBxMVU4UVdWdWtLWjljS0FLcWVDUEFXZ2ZEM1JVMGp3OXBWcnBXbnhuSWh0b3dvTGQyWTlXWTl5Y2sxMFdBTzFFcFhTaXRrTkpYdUFHS01EbmpyUzBWbVVKakZMUlJRQWg2VkROS0lvM1p1aWdtcGpVVTZMSkd5dDkwakJyR3B6OHJWUGNhdDFPSnNQaWxZM1NTR2FLV04xWWdJaTdpUURqTlcwK0lsbFBxOXBad3h5dUp6anpHK1VEajlheDlXOEhXVnBOYWFWYVJJajNKWm5ua1FPd0ErYkhQcWF2K0ZmRDFocUFzdFZhQllibUhjalJwamJrRWprZmhYeWxPcm1qclJveWt0OWZNOXFVTUdxZlBaM3Nkb2paSTJuak5jSCswTi95UXp4NS8yQnJuLzBXYTc0RUtSZ2RmU3VCL2FGL3dDU0dlUFArd05jL3dEb3MxOWllSmJxWHZnc2MvQjN3TVR5ZjdDc2VmOEF0M1N2UFBneC93QW5FZkhqL3IvMHYvMDN3MTZIOEZmK1NPK0J2K3dGWS84QXBQSFhubndZL3dDVGlQangvd0JmK2wvK20rR2dEM2VpaWlnQW9vb29BS0tLS0FDaWlpZ0Fvb29vQUtLS0tBQ2lpaWdBb29vb0FLS0tLQUNpaWtOQUMwVWhwT25XbGNCMUZOelJuNjB1WkFPb3B1YU0vV2ptUWgxTmJPT0RqOEtNMGtoK1FuT01jODA3b1o0eCsyWnUvd0NHVy9pWjFPTkZuSUNqSnp0cjFqUTNKMHF3QnlQOUhqLzlCRmZIUC9CVTd3WDQ2MWo0QlhYaUR3WnIybzJWcnBZSzYzcEZxY3gzdG0rQXpNdUNTWXpnOFkrVXQ2VjdEK3hkNFI4V2VFZjJmL0RSOGNheGY2MTRxMUtJYWpleWFnNVo0UE1BS3dnZndoRjJnZ2R3YWQwR3BOK3hkL3liZDRRLzNiai9BTktKSzl2a0lXTmllZ0dhOFA4QTJNU1Iremo0UkFJd0JjZk1PUTMra1NjajJyM0RJb0E4b2s4VmZaWWRlaWF3YVdTNGxkVitmR1FSZ1lHSzdqd2RPMXo0ZTArUjQyaWJ5d0NqWnlQenJlMnFUbkZKc1RPY1Y0MkV3RlhEVDVwVmJ4dGExbDN1ZDFmRXFyRGxVYmFwNzlsWWtvcHVmclJuNjE2OTBjSTZpbTUrdEdhb0IxRklENzBoSnBKZ09wTUQwb0ZMVEZZYUZDNXh4UVZCeDdVdUJSZ1VobVpybmg3VGZFV21UYWJxZGhiNmpZVHJzbHRycU1Pamo2R3ZKSmYyVS9EV256dTNoblhQRW5oQkRuTnRwT3BzTGY4QTc5c0dCL092YnRvOUtOb3ExSm9ubFI0V3Y3SyttNmd1UEVIalh4aDRnaEIrYTJtMVV3d092Y01pQVpINDE2ajRMOEJlSGZBT2pqVFBEdWoydWtXS3RueXJhUGJ1UHF4NnNmY211ajJqMG9BQzlCaWh5YkdrbHNOMmdkYVVoVFM0b3dLZ2VvREhhbG9vcGdGRklUaWdHZ0JhS1RQdlNaK3RUZnVBcEdhWTR5T3VPZWFkbjYwaEFZWUk0b3V1Z2p6M3hIci9BUFpmaTdKaGFmWmJiVUc0TDh4UE9NOWVLdS9EM1VaTlJYVWkwRFc0KzFNNm94QkdEam9SWGFlV21jNHBRcWpvTVY0MUxBeXBZaFZsVWRydDI5VHVlSlRwOG5McjNHcXVEOVRYQmZ0Qy93REpEUEhuL1lHdWYvUlpyMERpdlB2MmhXeDhEUEhoOU5HdXV2OEExek5leEd5MFJ4Rjc0TFovNFU1NEd3TS84U0t4NC83ZDQ2ODgrRFdWL2FIK081eGdmYjlMNi84QVhoRFhhZkN1MFhWdmdQNFFzL09saFM1OE9XY1hteG5ZNmhyWkFHQjdIbXZncjlpZjRZZkdXRDlzL3dDSVVQakx4ZHJseG92aGU0QnY1WlgycHE4aFFwYWIrUG1YeWp2d09tRXF3UDA1b3B1ZnJSbjYwQU9vcHVmclJtazNZQjFGTno5YU0wSjMyQWRSVGMvV2pQdlRBZFJUYys5S09sQUMwVVVVQUZGRkZBQlJSUlFBVVVVVUFGVXRZdTNzTk51N21NQXZEQzhpZzlDUXBQUHR4VjJzenhKL3lBdFM3RVdzcEIvNEFhYVZ4UFkrSUxQOXVuNGhYYUtmN0QwSUU4OFJUWXgrTGlueWZ0emVQMUlJMHJRVlRPQ1dobS8rT1Y4MFcwMStJMVlUeHVyNHlWNmlvYnN6eTNRU1M1QzQ1d3BJQnIybGg2ZGxvZk92RTFidXpQcVJQMjRmSEpYRW1tNkRFeEp4bUdVNS93RElsTEgrM0g0Mk1ic2ROME50dlpZSmYvamxmTVVVVDI4WkRTTXhiK1BPY1ZYV2E4bG1PQ3V3Y2JDeERIM3hUK3IwL3dDVW42elcvbVBxSlAyNWZITHRqK3k5REhHZjlWTC9BUEhLaC80Ym04ZkNSdjhBaVY2Q1VIcEJObi8wWlh6UXFYZ0IyeHFtRG5MRXNmeXA4VnpjS2pxMXh0YkhRcGdVZlY2ZjhvZldhMzh4OUpOKzNQOEFFRmdXaTBuUUhUL3JqTm4vQU5HVTZUOXVUNGdlVU5ta2FDem5zWXBjZitqSyticmVLYTRqeDlvOHYyVWNtbE1Eb3dYN1FYSG9hZjFlbi9LSDFtdC9NZlJONysydjQvdmJhUzNuMEx3M2RXOHlsSklwSXBXVmxJd1FRWk1FR3BUKzNEOFFZRUFPaDZDRkF4OHNVdUFQKy9sZk9UVzVjRHlwV1dUNmNVZVRLQnRNcjcxNVk5cVgxZW4yRDZ4Vy9tUG9MU1AyeWZGM2gzVElyTFRQRFhoclQ3R0hKanRyVzFrampUSnljS0h3T1NUV2tQMjQvSHJLdTNTZERKUC9BRXhsL3dEamxmTm13QnNlZEpnOFp6U0tQczdjWEVoejZtajZ0VEQ2eFcvbVBwRC9BSWJvOGZHUXAvWStoNS82NVMvL0FCZFRIOXVEeCtCbit5ZENQL2JLWC80NVh6Y0VMWlpXWW42MHJ4eUVBS2VjZXRMNnRUN0I5WXJmekgwYTM3Y3Zqd0RuU2REUStoaWxQOHBLY243Y0hqOS8rWVRvWC9mbWIvNDVYemdpR1BCSlB2ZzFJczA2L2NSZ3Y5NWpUK3IwL3dDVVByTmIrWStqaCszRjQ3QXlkSTBWaC9zd3kvOEF4eXBZZjIyL0hrZ0piU05FWEhieTVmOEE0NVh6WkdycU14NXovdlVpd3lseklzaFlkeFMrclUrd2ZXS3Y4eDlKZjhOdGVPbERPK202RXFBRTU4bVgvd0NPVjluZUZ0VWsxend4cEdvekJSTGQyY053NFFZVU02QmpqUGJtdnlsWUZZWERTc0VJT1FlYS9VNzRkZ0Q0ZitHY2NqK3pMYi8wVXRjZUtweHAydDFQU3dsV1ZTNmZRNkVkS1drSFNscmdQVENpaWlnQW9vb29BS0tLS0FDaWlpZ0Fvb29vQVJxNUQ0dGVMcnZ3RjhOdkVYaUN3aGp1THpUck43aUtLYjdqc3ZZNElPSzYvR2E4My9hT1pvL2daNDJNYkJIR21Ta01lMU9LdTBUSjJpMmZMTVA3Y254Qmt5ZjdIMExBT0dJaG1JQjlNK1pUVy9ibytJQWZIOWthRHQ3SHlaZi9BSTVYemJEUGZwaU1UeHVHeWNyMXp4MXFwTDUxemRFUGM3SlY2S3BOZTU5WHA5ajUxNG1yZDJaOVNqOXVQeHhzK2JUOUJqWURKQmdtUC90U250KzNGNDNTRlcvc3JSWEo3ckRMai8wWlh6Q0ZrZ1RIbUZuOWM1elVFY2w1T3o1WlNvL2hEa0VVdnE5UCtVWDFtdC9NZlQ2ZnR5ZU8yVnQybTZBcmR2M1V1UHgvZVV4ZjI1dkg0SjM2VG9JVWZ4Q0diSC9veXZtZFJlS3E3VWppYnVCODJhZkhjVHRCSURPUjZoa3grVkgxZW4vS0gxbXQvTWZTYi90emZFRWJTdWthQzZrOW9aZi9BSTVVR3JmdHJlTnRUczViSzUwSHc1ZDJsd2hqbWd1TGVWa2RUMURBdmdpdm5kSUpwa0dibmFCMDI4VXF3UHVPWjJjK25yUjlYcC95aDlacmZ6SDBOYWZ0cStQOVB0YmUxdE5DOE5SV3NLaU9LR0dHVlZSUU1CUUJKZ0FEdFRvdjIxL0hkblBQS25oN3c3RE5Pd2VXUklKUVpHQUNnc2QvSndBT2V3cjUzZUZ6L3FabkI3Z2lqeVdKRzZSL2MwZlY2YjZCOVlyZnpIMGkzN2MzajlWQi9zalFqbi9wak4vOGNxUnYyNC9IdUFWMGZSRDYvdVpmL2psZk5ZaUdkaG1seDJORVlNTzVSTzdnOUtYMWFtSDFpdC9NZlNDZnR6K1BuZmIvQUdOb1k5L0tsLzhBamxTLzhOdmZFRC9vRmFEL0FOK3BmL2psZk54QnhoR0xINjBHS1RQeXR1QTY4MC9xOU5kQStzMXY1ajZQZjl1WHg1akEwblEwYjBhS1gvNDVUbC9iZzhmRmNuUzlDLzc4emY4QXh5dm5FSjVlU1ZiUFlacGQxeGphRUlROXkxSDFlbStnZldhMzh4OUlmOE53ZU8xQUowblJHei9kaGwvK09VK0w5dHp4MHdKZlNkRlQwL2N5L3dEeGRmT0MrWXFjRGF2ZGcyYWFJcFZJS3l2SXJjNTlLRmhxUzNENnhXL21QcDNTdjIwZkcxMXFsbGIzT242SEZGY1R4eEUrVktEdFpnT0NYeG5tdnRXTWtyejFyOG9OQVFqV3RNUnBDVisyUWNIdmlSYS9XQURBcmh4Vk9OT1NVVDFNRk9kU0xjbmNXaWlpdUU5RUtLS0tBQ2lpaWdBb29vb0FLemZFWC9JQzFML3IxbC85Qk5hVlpuaVQva0FhbjZmWkplbis0YWEzRTltZmtiSkpjRkVXQzFnU01LTVBNOVNTeURjaUtpVE1SODJEa0EreHFtTk5TU3ppMnJLcmdaeXpaelJaYVlHSjhwVERJVHp2ZjVqWDBTMlI4b1daV3VCSXZsUlJCK3lrNUpxUXplZSs2UlZEcU91M29hakdsUEhKNWtFckpQM0pHVCtGT1NPU2FQZExlektjNEtiUmduOHFvUktIWlpQbEFZNDVZdHlmYW1QNXJuRzFaU1Q5MVc2Q29wTFdSOXV5N01YYkpTbXp3UzVVTk13eC9Fb3huM29BdEswK2RwalZBT001NXByTE5ISURHQnUvMm00ck5jTkhOaFpta1krdlNudmN5TGp6VUVZOVNjL3lvQTBwRGNQeS9seGsvd0FRNjBRRGVTcnpqbmpJRlZGbWFRQUJrZGY3b3lQNlZPVjZiTml2MkRVQVNUSUk4SVpNRFBIRklxckp3em5BL3dCbW92SWxESHptM0EvZDIvNDA0MnhqWExLeFUvM1dvQW04dU5TU0FXVURPUnhUaTZpUkRGR3hCSEpOVlBzb1ZjSUhiUHEzSXFWTFVpUDVYSWJQSURVQVN4M09RNm5DdG5qTlBhNEErYVovazlNMUM4TVNuNThFK29wQWtiY01xeUw5S0FKUk1KaHVSbEVmcEdNbW5pZGdma0RLdisxeFVhSkVSdVRoZjdpakJxUkd6d2dPS0FKZnRSamhjU3FweUR5YS9VNzRkblB3L3dEREo5ZEx0djhBMFV0ZmxaSlArNVpGUG1OZzUzVitxWHc2L3dDU2ZlR2Yrd1hiZitpbHJ6Y2R0RTlUQWZGSTZJZEtXa0hTbHJ6RDJGc0ZGRkZBd29vb29BS0tLS0FDaWlpZ0Fvb29vQUs4NS9hS0FQd1E4YTVYY1A3Tmw0empQRmVpazRyelg5cE5kL3dJOGNMZ25PbVMvZE9EVlIrSkdjL2haK1l6VFhFa3FoYmEzZ2kzWTNPM1A0WXFTVTVuQ3h4aVZCM1lqNzM0YzFVdU5PRWlLeUxKamJobDh6QklwMW5wUWtVRzJBaVVmZVF5Y244YStqdmRJK1c2c2xhVzdTY0dPT0pSbkJHY21wRWtEdVpBRlZzNFpzWU5STHAwbG81TnZLNnRuSlhsait0UE1UeWdHUy9sWnM1OHRrQS9wUUJMRTdnT0ZRRWZXb2lKWFliVVdadS96ZEtqYTFtZVFGTHd4K3dXbVRRc0pqdW5hTWdkUU1BMEFYb3pPNHcwWVFEME5SQXpLNUVLZ2svM2pXY3JOREo4a2pzVC9lUFdwSmJwazJtVlJFZXgrOW1nRFFmenVDNWpqUDhBczArS01UUkZHbSticngzcW1ydklnSUlrVStuR0tsYkpLaUx5MU9NWk5BRTByNElCa0s3UmdjVTBDT1lneU1TdzlWelVRaWN0aVFsMjlxVTI1WDVTcmdlcXRRQk9xb2paSWZIOTRkS2NaTnJ1cVIvSTM4V2FxaTFJR3hTenIvdlZNa0pBVGF4MitoTkFFc2M1WlFONjVIVE5CdVVqNW1iZDdaNHFJd1JLY3RqZDdVTWtUZk02cVFQYWdDVXlxK0pGT1l6L0FBeGluaWQwYkNLeEI2QTlxaVFSWXltQ3Y5M0ZQVjg5Q1ZVZm5TWUxjMS9EOXhqWE5MV1NNQnZ0a1BKLzY2TFg2dkN2eWEwR2YvaWY2VUZKYk41Qm5kei9BTXRGcjlaUlhtNDc0MGV4Z1BnWXRGRkZlYWVxRkZGRkFCUlJSUUFVVVVVQUZadmlNNDBMVWpqUCtpeThmOEJOYVZabmlNRTZIcVFISCtpeTgvOEFBVFRXNG5zejhqWTd6OTFHekF4REF3b0djMU1qUWx2Tkw3WFBkbElOUlFRUjI4U1ptZEdLamtqclRubmtqSy9kZFQzTEN2b2xzajVOa2pFU3lGak1WSFpxaGlhSjVTSG5Mcjc4WXFkZHFOdVpsWUVjSlNYQWg4dmVJVDE2RG4rVlVCRUpJVUpZN2pnNDY1elRuSXVzRVF1U09uUEZJWEFKRWNMQmZVaW9HdUpFYkFsWkI3aWdDeDg4WXhJaXhyNkhwUkc4c1Q1akVZWDg2UlpKWEdUejZNd3lLak1wUi9tRzArdUtBTERPU2N5eWxQOEFkWGlucXFIQ21mZzk5b3FxU3luY1hKUFl0akZWNUxsbXo1cUt5ZXFOeitWQWk3Y1poVUt1SjB6eTRiRzM4S2pDbU54bVZ5cmRzaW4vQUdiZkN6eWxralRHZjNmUUhwbW9ibU5veHVLc0V4d3pvVkg0ZXRGMFdvdVd5SkpwMGpZYkMyZS9ILzE2YWt6c3AySW9KN2tuTmNaNDg4U253NjJpTEE4ZXk3dWtpbko2cXBZWlA1VjFObnJHbHZjbXpSeExOL0NRZUcrbEJYczVXdll1eDdpV0VpWTQ0Sjlhc1JwTDVJWUZSVEk3WnBsVlZ5b1U1TzdrVlkvczE1V3g1aFJUMDlEVHNadlFRaVdNZ3FveWY3dEVrenN1TUNwWHRGWEg3N1pqMXBmc3dYb3diNlVnS2piekhMbUxQeW5uTmZxdjhPUCtTZWVHUCt3WGEvOEFvbGEvS3U0MkNLVElLNVU5VFg2cWZEamo0ZWVHTWRQN0x0Zi9BRVN0ZWJqdG9ucVlENHBIUmpwUzBnNlV0ZVlld3Rnb29yai9BQko4WGZCM2hMeFRwM2hyVi9FbW02ZHIrbzQreWFkYzNBU2FjRWtEYUQ3Zy9sUnVGN0hZVVZGNXBPM0FCejZmeitsY2hkL0dUd1hZK080UEJVL2lYVEkvRnM2aDQ5SGU0QXVHVStpLzBvQzUybEZRck14NElBYm11Ulg0dytEWDhlTjRLSGlYVEQ0c1ZQTU9qQ2NmYVF1TTUyL1RKeFRTYkM1MmxGSXB6UzBoaFJSUlFBaDZpdk9QMmpYOHY0RytObUNsOGFaTDhvNzhWNk9lb3J6ajlvNWQvd0FEZkd5NUl6cGt2VHJUaDhTSW44TFB6RisxQkdWMytSaVB1NEp4VDRUQ21XUWdNeDVJNjBpUnBDQWl6dkUzOTBqQi9FMGd1SklwQXJsWHowWUd2bzFzajVYcXg1VlgzTzA1VHRrZGFydytVeFlQTVpNZENjZzFhRG9tL2R0YlBZTnpUWjBqVlk4UkU1NjRwZ1JKTEhFUWNNZlk5S2tremNNSEVET0I3OFV4MkpVaFlXVlIvRmlxNlRTQWtMSXc5alRBcy9NRGwwUVk2S3dwMEx5bytWOG9BK296VWZtU0ZmbkgwR090Tk1wVjhjcDc0b3NGaWZLK1lTOCsxdjhBWlRpbjdZbUlRellCL2kyNHFtN1BnbFdZbjFiQXFGcDNkdjNzWVlqcHNmSi9LZ1Y3bHk0REsyelA3dnRLcmRhUUtJUnRhUm05eXd4U3ZhNVFlWVdHQ0Z5RnlNK21LcjNDdEVNT3JCVDBETDFwWFJTaTNzaVY3aEVsMng1eWYwb0JrY0FJcXNvOSthNG5YL0U0MHp4dG9XbGVha2VuM2F5R1Z5Y0ViUmtmblhYYWRyR242aHZodHo1c3ljbkIyOGRxQ25DUzZGcU1NeU5rQUhQR2F0dEhJcXJrTDlLWXRySkt5WUJLTDM5YWxqMHhtZmRKSVFCeUFLTnlMQ0ZYaFlkRUI5cVNWM1lqYW9JOVIzcVI3VDk0UDN4QSt2U3BCYXF1ZXJlK2FHdEFXNUo0ZVpsMTdTL2tIL0g3RC82TVd2MXFGZmt2b20xZGYwcFFQK1h5SHY4QTlORnI5YUJYbVk3NDBleGdQZ1l0RkZGZWFlcUZGRkZBQlJSUlFBVVVVVUFGWm5pVG5RZFQvd0N2V1gvMEExcDFtZUkvK1FEcVgvWHJMLzZDYWEzRTltZmtWYk5LSTBEWE9Vd1BsbEFJL09wWlVSUUhXSUEvN0hScUxHYmRhK1lscWtnVURQT1NQd3BiaTZka1ZvSTJsR2VVUWdFZmhYMEtmdW8rVVpGSGN5TmNZYUFsY2NxY0VWTUpkcUh5NHN4WjUydGpINFZCRGVMTnZaYlNVT3ZCQnhrL3JUWFdhTlpDSWdrZmRPQzM1WnFyb1JiRWx6RVdaSk1LZm13MkRUSG5lZUlHUUttY2tramtWVGFXZURiSWtTemdEaEhHMGl2ZWZnWjhFOUo4VzZhbXYrT2RhdHROc0p5UkZwb25SSmNZNExaUHlqOEttVXVWWE5xTk4xWldSODVhTDR5dGZGRU55dGhMSk9MT1V4T3NVTE1TdytncjFMd3o4Ri9pQjQzdGttc2ZEMXkwTEFGWlpWMkRIcnpYdTM3UG5nWDRaZkFidzlyK2wzdXM2YzkxYzZqTmRwY1NUUnMzbE9lRTNFL3JYb3JmdEplQVBEY0pqajhSV1NSamphSnk1eDIrN1hKOVlsMFBSK3BSVDFaNGJvdjdFL2lXK01ZMXJXclBUQzJENVNaZHZwNlY2SHBIN0d2Z3JTam5VcnUrMWFVSGxZaHNYODZ2YXIrMjU0Q3NMT1pMZS91cnU5MnQ1UmdpY3JuSEgzdUs4bTFmOXIrYTgwblRvN08yMVA4QXRPRmc4OXc1VlZuVVo0MmpPT3ZyMnJDVHFUT21OR25BK2p0RytDWGc3VElIV0hTa2hqWWd0SmREZWNEb0RtdHZXTGJ3Tkxwd3RMNjAwNjZrallDT0pZVmJHUDhBZDVGZkZuaUg5cDd4RnJSYnliQ01LZjhBbjl1R2ZIMEM3YTR5L3dEaTc0eTFCY0hWM3MxSUlNZGtpb0NQcmduOWEyaFJrOTJhWHB4V3g5bmVNdmhqOEt0YXRvVHIyaWFOcGtLSHpGdWZNV052MTVyNTE4WTZYOEhJRTgyMDFCb0wyMnZDMFVObVBORHg5Q053SGNWNGpkejNXcU9XdnJpNHUySnlUY1NGeit0U29FdGxCVlZVamdCUmorVmRNYVhKMU9XYzd4dEZIWmFwZWFCZFhFa2ZodTMxQUlUbk4wRkFINDVySlpycHdVa3VGQ2pvaWptc3JUN3AvT1BsNVgvZUhGWFJQY2JnWE1jYWp2MU5kRjB6eVpwUjNKTW1NNEp6L3ZDbXZLU2NmeXBqdUptQU02TVQrRk1EL3ZNakRKL2V6aWxZekZraWFTRjl1N09EOTZ2MWMrSEFJK0huaGdIcU5MdGYvUksxK1VVNlNTeHVZM0pVQTlLL1YzNGNmOGs4OEw1Ni93QmxXdjhBNkpXdk14MjBUMU1COFVqb3gwcGFRZEtXdk1QWVd3aEZmSG43UlA4QXdUMTB2NDkvSC9SL2lOTjRxdXRLVzNXRkxxd1dJdVpCR1NRVWJjQ3VSZ2NZeGdubk5mWWVQZW1tUEo2MFJrMHdhdVIyOFBseElvT0FFQ2dHdmtMeEgvd1R3MG5YZjJ0SS9qUEo0cXZVaVc2WFVIMGtKMW1IRzBQdXlFUFhnY2RPYSt3bFhBR1R6UVZKNzAxSm9WaU5WM1pJd08rY2RUNjE4Z1IvOEU3OUhpL2ExUHhsSGl5KzJmYlA3UkdrYkRuenNINVRKdXlVM2ZOakhUNWNZR2ErdzFRSXVCU0ZDZTlDazFzRFFSL3hmV24wZ0cwWXBhUlFVVVVVQUllb3J6ajlvN1AvQUFvenh0Z2xUL1prdks5ZWxlam5xSzgyL2FSZnl2Z1Y0M2NydUEweVU0SGZpbkg0a1JQNFdmbUpHSk51R3VGa1grN0tNbjg2V1NOWVNyUnc0K2h4VWtWd1BzNnlpMFVvZjRoeVIrRk11cnVVTXJwQzhxNDZ4a2Z5TmZSSnBKSHl2VmpJTGwyWnhKRHVqNkV0dE9LbUR1TUJJU3NlTUJ0M0g1VkREY0pORHVGazVMSEJCQzhma2FoMnpSeDRhTWVXVHhzT1N2NFpwM1FGdno3cTNVL3ZBUVA0ZldvTCs5RVZyTGNURlloRWhrWUVjNEhOUXZOZFd4L2RXNG5kdnVnL0syZmF2b2Z3Rit6dDRiMXp3UmQzZmpmeERhTHFHbzJUZVJaSmRvbmtaR0YzblBYSkhGWnptb28zbzAzVmx5bythOUM4Vkw0d3NMYSswc3pYY1RQNWNZaXQyWWx1bllWNno0ZS9aOCtJdmpGWTViYlFKWW8yeGlTZjVGd2UvUE5lK2ZBL1R2aGo4R2ZoVHBYaGk0MWpUeHFGa3BTYWFTZUl5VHR1SkhJT2NWMkYzKzFENEIwUzNhSC9BSVNHMFZWNkx2YVFqNllGY3Z0M2JROVA2bENMMVo0M29YN0QrdDNqZ2E1cjl0YXNNRXd3S1dZZjByMEhRZjJSZkEyaXlwSmRuVU5WdVk4SEs0UmNpcUhpNzl0dndZdWpYTnJvdDdlemFzNmxVa2lnTzBISEJHN0ZlY2E3KzJFOTlkYWZOcFZucU1RZ2oyWEN6VEFDWnNmZUhISDYxZzUxcHZUUTNWR2xIWStsdEkrRC9oRFE0WVREcGtNQ1J5R2JkZHFHWXQ2a25pci9BSWh0dkFtb0NCTGpUOU4xRzdRWTJMQ29BL0t2aWJYdjJrdkV1c0Z2SXRJRUJPZDExSzBwSDRjRDlLNURVdmluNHgxUlNrbXR6MjhSL3dDV2RtQkFCK0tnSDlhMmhoNXZXVWpXVTRSV2lQc1B4NThML2hEY3ViN1h0SzBmU0pyWkNZNUlwbGpmT01kNitlL0VWcDhJYlc1c0wyMXZMbDd0QTZYbGxhSVczQTlNTmdEaXZHYmhaYitYZmRPOTFKM2FhUXV4L01tckJramdqd01BZjdKT2Y4SzdGUVVkV3ppcVZlYlN4MWQ3ZDZYZFRPbWhSM3F3TDFlNzJxUVBvQ2F6cERjT3FpYTZYT2VBaTU0K3RaMm0zTXhXVHlzQmp3UXdBelYxYm1jTmg1WW8rTVlITmFwcExROHVvdGJqK1ltK1p3UjcwMHk3dHdCSjlnYWpaMWtPZk5Wc2RjaW1lYUFjZktvUGNHaVd4bDFOUHc5QzcrSU5LWVo0dklNZy93RFhSYS9XMFYrUitnSksydjZTNnNXVVhzSFQvcm90ZnJnT2xlWGp2alI3R1gvQXhhS0tLODA5VUtLS0tBQ2lpaWdBb29vb0FLelBFWi80a1dwWTYvWlpldlQ3cHJUck04UjVPaDZrQnlUYXk4SHA5MDAxdUo3TS9JaU85OGxvMmUxUG1PdUEwZksxYnRyanZGWVFsaHl6RnNNMzB6U0tMaUsyU05XaXpqbEFhZ2ZTN2xrTGhVUTl5YzVIMHIzMThLUGxHWElaWUhEdUxHVzBtSjQzQUVNZnJWUjQ5UWpkcFRhUlNGand3Y1pGU3hRM2R2RGtUTTRQOEx0a1ZSbE41RE9HTFJBTi9DcEl6VFc1Sm9SNnpPMGZsM0ZxR3h5Q1IwL0dxR3AyVnpxMGhra3RrTXVQbEprSkxEMFBhclIxZVNGQWt0bXpidUFUakJxdE5leHcyczNscXNjaEhPMTg0ckdxMG91NXRTbTZidWprN21Ob3Iwd1BBcU1uRzA0UDYxWk0xcmFwbVNhT0VqcU04aXNIV3RYZTRrZFVPSmY3K2VhNWVlMm1rZmQ1Mjl6OTRuTmVJNnJpM1k5TlZXOXowdUs0dFp6OGwxRTRQWVB6K1ZYSXBGaVhDaFRudXA2MTVNTklrYmtNVjl3YXRSVzl4R0FCUEtWSGJlZWE2S2VNbEZiRXlxSHBqWE1VWkxPOGFnZFF4cWhQNHJzclZtUXlnNTdLSzR0Tk5tbStabmtLOXhrbXJ0bm9iVEhDcm42REpGYiszcVQyUmhLcGMxcnJ4dWpBcmIyd2IzWTFsbnhacWNyN1VJaUhvdFdJZkR6R1FyakpIWWpGYVZ2NFo0K2FGa1ByMXFiVG51N0dmT3lId3JQZnZmUGNUek82OWtZOFYya1V1ODdwVmJkV0ZCcGtscTZxc01tMzFGYWFXVWtxRmlzaHgyelhiVFRodVl6YWthcXpvcWhIVEtqK0pWcFdtaWtjcVZWWEhRZXRVSW1kQmdRU3hqM3A3TXJCU3NXNGpyenpYUnpHUmZSNDdhQjFTVlF4QjRITmZxNThPVG40ZStHRDEvNGxkci82S1d2eVVlV1pJSkNZL2x3ZnZZeitsZnJUOE5UbjRjK0ZqMHpwVnIvNkpTdURHNnFKNm1BK0tSMGc2VXRJT2xMWG1Ic0xZS0tLS0JoUlJSUUFVVVVVQUZGRkZBQlJSUlFBaDZpdk9QMmpHWlBnYjQyWkZEdU5NbHdyZER4WG81Nml2T2YyakVaL2dkNDJWTWJqcGtvRzdwMHB4K0pFVCtGbjVmTGVpR1JvL3NwM3NNc0FOeWlyVnZjR0JDNmFkSEpIL0Vva0FZbjJCcEpmdEJReGp5bTRHVlE4Zyt0VnBOS3VRb1lNcXJqUGZJcjN6NVhxeTNCSkFZdDF2YVBhM09jaEpCaGZ6cXNWMU8xeTcyY2U4bkplSmhnMUxKRmR4UW9nbk13SS93Q1doR0JWRE41Qkx6dGJQYU1tZ0RSajF1V1VqekxaZk1YZ01lTUdzblV0TXVMOTVKeGFMNStNbGhJU3plL3BXaEpxckJQS2x0TWtqcWVsVWRRMUZMU3grUmdub3dhc0t6U2pkbTlHZkk3bzVZcVh1V1F3aU4xNEl4a242azFkKzAyZHJqZk5GR2NZSFRPYTVqVjlVbHV0M2t0c2ZPR2t6MUZjL0pwenUrVEo1Z1A5ODlLOGYycmk5RDFQYmN5M1BUVWx0WnNiTG1PVWs5MjVxMTUyeEFDcUU5bVhGZVRybzhtZDNtTW9ISUt0VnFHM3VVR1BQa1pmZHpXOE1TMHRFYzdyV1BTM3Zvb1JtV1NOUjZNZWF6Ymp4YlpXL1dYZDlCbXVQajB1YVFibWtiYjZFazFldE5DYVVjS1Q5Qm10bFhxVDZXTTNWYk5DODhjUE1NV3Rzb2IxSnhXYTNpalZMbjVRNFQ2Q3J0dDRlYmR3b2MraDRyVGc4TjdXK2FGZ2ZULzY5SnhxVDZtWE0ySGhDUzlSWlpKcG5sTG5nTjJycVlYQmI5NEd5ZTVIRll0clp5V3poQkRNb0ZhUXRIWlBNWlpaQi9jenpYZEM2U1JoSzVxTGNSNXc2S0NQdTRYclNNOE0vQVVLNFBJSndLcVJTc0FGTVVrYVl3UWNVNWltN0VVSkk5UTNPZnhyZSttcG4xTi93M2NKRHJtbFJSeUQvajhnQkdNLzh0RnI5YlIwcjhoUERyeXA0ZzBZc20zL0FFeURKeVArZWkxK3ZZNlY1K04xa2oyTXYrRmkwVVVWNXA2d1VVVVVBRkZGRkFCUlJSUUFWbWVKQ2Y3QjFMQXlmc3N1QjYvSWEwNnpQRVEzYUpxSUpHUHNzdjhBNkNhYTNFOW1majdIZVR4bFJkU3RiNEF5c3NXQVBvYXROSGZ6UmI0YnBXZ1BZT0t2ZjJQR2tFYnlTL2FJeXVSdGJmOEF6cXU4TnZDVEliZFZ4MU9Rb0gxNXIzazF5bytVWm5OZTNzQ3RHWWxjZjNteitsU0pkejdVTXNiMjdNY0FFam42WnJUaWxqdnQyZG5sQWNNSkJoZmVxdHphMlV6Q2J6QmVlVzJQTTNuajJBQW91SU1PWTJPOVdPY0ZISFA1aXFXc3dtOHN3c2VuQ0lnNExSdHdhdHBCQXMwakpJcXUzWm54eCtOV0dTNWhpTEtHa1U4ZkttUitkUktIT3RRMlBQUCtFYW1hNExHUEFxeStpU1JCZDFpR0o2ZGdhNjgzc1VReE14amNub0ZxNkRieklnVmxtYnNHT0s1L3EwVFJUWngwSGhxOWRROGVueGJmZHFzdzZKR3I3SnJaUS84QXNjNHJxV2RrTzJTQmtVZjg4dVJTZVZiM1VnZmVyZXpmS3kxckhEeDdDNTJZc09reHhZekJMR1A3eFNyU1dVTUpIbEswTE4vRXE5YTEzdEhRNGhrM0xqbm5wVk9WSm8ySVo1Q0Q5T0s2RkNNZGtMbVpSTnJEY0VoMnd3Nm5vYVNIU0RITnVTNFp3ZjRkOVhHc29iaUxhWVpDNS9qcEUwbUpXR0p0bUtmS3V3Y3pKSnJYeTBYZkhJbm9DL05NUzNNY0pZTklySDFhcC9zd3VBRDVyU0ZPNXB4aGNMajdTQ1BVclQ1U1N1a003RUE3Qm4rOFAvcjA5TFpwSFl4dXBIOFJBcU9OdGdZRUxPUjB5MktrV0RaRUdEK1czY0tlS216QVpjUkNLMmszQXQ4cHI5WS9oci95VG53dDIvNGxWci82Sld2eWVkejVMaVJneDJuQVBGZnJGOE4vK1NkK0Y4Y0QreXJYL3dCRXJYbjR6NFlucVlENHBIUmpwUzBnNlV0ZWNld3Rnb29vb0dGRkZGQUJSUlJRQVVVVVVBRkZGRkFDSHFLODIvYVI4ei9oUlhqZnlWTFNmMlpMdEE2azRyMGtqT0s4Ni9hS2k4NzRJZU5FM2lQZHBzbzNFNHhUajhTTTUvQ3o4c29ieDBjTFBjR0FqcXNzZTBnL1VkYW1rajFKL21GeXJRTjkwYnV0YU54bzhkdUY4N0V2cHp1RGU5VnRsdGJObnlBdWY0bWNBRDlhOTY2UGx1ck0xNzY5aVV4dENDd1BBNUpiNlZPbDNNQ3F2R1luUDhQR1IrdGFNVExkWloyU05GNlNieHgrTlVuczdLU1pMZ2JibkpJODVXT2Y1VXdKbEw3QTJWbjUrNDFZL2lHMU41dEVlbkMzNCtiYTJRYTFJTGVOUzZ3U0tHSnlkejhEODZta0Z4YmprTk11T29YSUZaMUljNnNGN0hubHI0WW04OG55czRPY0hvYXRTYUs2dUVOZ3JNZSthNi83ZkJDRlNWdGtoUE9CVjhHR2IvVmJKVGpveHhYUDlXVE5lZXlPTWo4TTNtd0U2ZkVGL3dCNnJWdG9rQk8yVzFYekIyUTExQnVUR284Mko0bEI0OHNab2p0TGVhVVNCbEJQTzQ4RVZwRERxTDJNK1p2Y3g0ZEtoUVlraWRWOTBGVHJaSkYvcXQwWTloV3E5dlB2SVZ6SWc3azFVbGpabXc1Y2oxd0FLNnVTSzJRK1lvclp3WExrcyt4eDJ6aXBMWFNXdDVNTE0wby81NTdxbmJUN2VWRkN3dW1lcm1pTFRZWVgzaWR4L3RacGNxNklPWmo3bXoyc1F5T3JrY0x2NXBEYnNrSUNNeFlkdDFUbTJFaDh3VE51SDhYV2lTTmhGdU4wUHhXbHkyRTNjaFJaaUR5dTBEa3NhV0tCNWdTakFyMzRwb0kyYlRHc3JrOWQyUDBxVTIvbGdGWk5uK3lLYlZreExjdWFIRXNYaURTQVZKLzAyRGtmOWRGcjlkaDByOGpmRHpBNjdwSWtDay9iWU1ZUC9UUmEvWElWNTJNK0pIc1lENEdMUlJSWG5ucWhSUlJRQVVVVVVBRkZGRkFCV1o0a0FPaGFrcDV6YXlqSHI4aHJUck04U0FIUWRTeWNadFpSbi9nQnByY1QyWitRZzBWb2hHSTJtdFFRTW9XeURVR3E2UnEwWjJ4UEE2a1pCMjdqVisyYWExaFJJNXpQRnR6c2tHWC9BRHB6WEtTSVB0Q1BFL2JPYTkvbDBSOG0yWVF0aUlQS3VwdktsejFDWUEvQ3RiU25rdFZDbzBaZ0p5VEVNRS9XbnlSVFNJQWtzTndoNlJ1T1IrTklMRXh4NWV6a0I3Q004R2x5MkZjdTNGbXI0a2taQVdIVUtEVmNXU2daamxIMDNrZnBSSGN5MnNZMjI3bGVwVitjVllnMWF4blQ5N05CRElPeE9LMGlGeWxMcGF5bm1JdjduT0tnYlNiYUVFaVl4djJ3TWdWcUc2WGNUQk9zM0gzVlBGVnZ0a1VnWU1oaGs5Y1pxdVVMam9DL2xLQk9raDlBY0dwUDdObVVHU05mTFp1dThnaW9SWkpPbnkrVXYxYkJOTWdFS2toakxHdzRETytWb0EwZktuK3k1a1VJM3FvNjFTa016RUJzQlIxSkdLa01Va2syeEx3T095N3FiSmJ5UThUU0NUUFJhQUpMWU5Ia3NUc2JqS25OUlRQaVVoRHZIKzF4VlJpeXkvNnRnbzZZemlyeXdSVElwa2c1UGNIRkFEUmJSM0VaQVdWV1BRUnRUSDBob1Y4eEo1Zjl3ODB0d0xZc0VVbUVyMVlHb2k3Ui9NTVNyL2VEOC9sUUJOY0s2MisrZUpUdDZiUmcxV3RuV1VCaGNKQ3A3T3ZOU3dQZHo3c3EyRDJZWnEvRmFMSGJocDFWWEhjNHBnVi9KOHVCMm51RW1PRGpBeFg2dS9EZzUrSG5oakhUK3k3WC93QkVyWDVRWFZ3VHUyVEszQjRDMStyL0FNTnpuNGVlR005ZjdMdGMvd0RmbGE4dkc3UlBWd0c4am9oMHBhUVV0ZWFld2dvb29vR0ZGRkZBQlJSUlFBVVVVVUFGRkZGQUJYbTM3UjhTemZBdnh1aklYVnRNbEJVZFR4WHBHYTgzL2FQVHp2Z1o0MlFNVkxhWktBVjZqaXFqOFNNNm53cy9MODZMSWt3V0tkN2JqaEpEdXJPMUhTOVpqY3FHaGRPN2JNOFZyaVM0dGtaRmsrMUtGR00vZno3MGpYRUxsQk1UYlM0NkhOZTZvM1BsYjZzdzJ0bGxoU09XZnltVGtxeVlWcTI5Tm1saWpSQXlMR3ZDR05jQ281WVpwWHdXaXZCajVTL0RBZmhUbnRQSlJOOW80Yi9ZWWtVN1dDNVp1TENFdmw5ZzNjbHNjR292c1lJS3h5NUhaUTJCUWIrU3pRQXdmdXZTVG90V0l0VDA2NFhjYm1DTnY3dTRBMWFWME1vTnBDU0hKakI5U3hOVjMwMkMzQWVHNFpKTThqSEFyVWU1S1phQ1FYTWZmSFFWQUxxR1pDUEw4dHgxeU9EVldzQTlFZG93Rm5Gd01jak5PL3MyNGhqRHhLUUNlUXpWRkpZcEttOENOVDE0YmsvU2toOG9uNVBNZ2xBd1RLM0g0VUNMc3NVeXdxU3Z6ZjdJcW5LSlhKM0JWVDBOU1J4VHpOc2p1eElSMkRacEpJSklzcE15dXg2VUFTVzRhTkNyc1FuYkh6Q3E1ZHQ1Uk5yQWYzdUtyNzNEWjhwbFByMUg1VmVGckZKdExRYlhQVTU1cGdKOWtqbVhhb2xVK2diaW1QcFVsbnRhS2FTVmlmdUhta25GdXpmdTM4c0RxQzJLamFWNHhrS0pQN3BSOG1rQkpla3hLSkpvd3I5TUtPYWlnK2RNaTdqaXo5ME1NbXBJUHRVNjRaQ0h6bkxEUDRWby9aNDRZVk1nUkpNWnlRTVVwSzZHbnFUK0c0bGgxelNCSk1zc2h2SUR1QS82YUxYNjJpdnlQMEs2WStKZEt4S3I1dklUaFY1eDVpMSt1QU9SWGw0dmRIc1pmOERGb29vcnp6MVFvb29vQUtLS0tBQ2lpaWdBcXRxRm90OVp6MjdFaFpvMmpZcWVjRVlPUGZtck5OSXlhQVBtd2ZzSGVCRVFMSHEzaUNQQXdDdDFIbjlZNlA4QWhnM3dLdytmV1BFTXZ1OXpFZjhBMm5YMG9jZ2NVZ3o2WXJYMnMrNXoreHAzMlBtdC93Qmd2d0E0QU9vNjZNZHhjUkEvK2k2WVAyQi9BcXVHR3RlSkJqdDlxaXgvNkxyNlk1bzVxZmExTzRld3A5ajV6YjloN3dNcWJXMVRYQ0R4ODA4WFAva09zK1Q5Z2I0Y1RPMjYvd0JhSnpnL3ZvdVAvSWRmVE12Q2duc2ZTdkRORHV0YXMvMnV2RW1sM0hpUy92OEFSWmZDdHJlMjJrVDdCYjJUbTRtakppVlFNa2hjbG15M2JPQUFIN1dwM0Q2dlQ3SGhmaWY0SC9BZndUNHExTHczUGUrT3J2VjlOOG8za2VpNlBkWHl3ZVlna1FNOEZzeWdsU0RqT2E2SDRiL3M3ZkJyNHFUYXZhYUZxZmk1THZTVENMeTIxUzFtc0pvaEtyTkdkazhDTVF3UnNFREhGY3g4VlBFeTJYeHAxQzAxWFFiWHczNG8xVzJTN3Yxc1BqRlBvOEt3eElJb0paNDBqUlF6cUFxaFF6SEhPQnpYcVA3TXpYVnJyMnUzbWk2RnBtb1cyb2lNYXByc2Z4SWs4U1RoNG8zK3p4SGZHU28rWmdCdUFBSk9EakZQMnRUdUhzS2ZZNFRWZmhiK3pKcDF6Y2FYZmZGdlRySzl0SkdobmdtOFJXaVN4U0tjTWpLUmtFRUVFSHBpdGZ3WCt6TjhDL2lVYnVId244UVpmRWtsbUVhNFhTdFd0cmxvUXhJVXNFUTR5Vk9NK2hySC9hbCtJbmpuVFBCMWxiYXg4S2REdEp2N1FoMTFucy9FYVhNdms2Ykl1b1RzeUMwVWhXVzJNUWNuSG1UUnFmdml2b3I0YmEvNDExUFZjYTU4UE5GOEs2UlBiK2FMM1Q5ZVc3a1orQ2lOR0xlUGdnc2M3ampIUTVvOXJVN2g3Q24yUEpQRW43SXZ3cjhKeDZZTlcxdlc3ZjhBdE8vaDBxMUprUmpKY1M1OHRQbGk0emc4bmozcmFIN0NmZ1BaZ2FwcndIL1h4Ri84YnFYOXJIeGUraVA0Sml0Tk9uMVc0MHZWRjhVencydVdkWUxNaktzb0IyaHpLUUhQQUtIclhzbmpIV0Z0UEFXczZyWlcwMnNSTHAwMXhGSHB4V1NTNUhsRWp5OHNGWXNNWU80QTU2MGUxcWR3OWhUN0h6QmZmQVQ0RmFUcGQxcU9wZVA3elNkS3Q5UWJTanFHbzM4RnZiUzNLakxSeHl2R0ZrSUlaVHRKd3lPdlZXQTFmRC83THZ3aDhXNjlxbWo2TjRvMWJWYnpTU0V2ZnNseEhKRmJ5YmlQS2VRUmJSSU51VEhuY0FWSkFEQW41TitETFhHaWZDZnhEYzZmb0ZwTm9LK0dQRHVxYXRZM0xXK21UYXhad3g2aFBkK1VZL05pbmtrYUI0bUxJclBDc2l1QTRaejl1L3M2UjZ5M3hlK044OTYrbExwVTJzYWRKYTI5bGF2RkpIdTB5MUtoaVhLbkVaaUJ3QmxneDRCQUI3V3AzRDZ2VDdGV1Q5Zy93REsyNTlRMXduL3J2Ri84YnBuL0FBd1I4UGR1QmU2MHZ1dHhILzhBRzYrbE9hT2FQYXo3aDlYcDlqNXFYOWdyd0lqN2hySGlIUDhBMTh4Zi9HNmUzN0IvZ1NRL05xdXZ0N0c0aS84QWpkZlNYTkhOSHRhbmNQWVUreDgwTit3RjhQSk1uKzBOZFVuakszTVkvd0RhZGZSZWg2UkRvR2kyR21XN084RmxieDIwYlNITEZVVUtDZmZBcTRBYU9haVU1VCtKbWthY1lmQ2gxRkZGU2FCUlJSUUFVVVVVQUZGRkZBQlJSUlFBVVVVVUFJZTFZZmpYd25hK09mQ3VxZUg3NTVZN0xVWUdnbWVCdHNnVS93QjArdGJsRkhvSitaODJOK3dsNEh5UkhxL2lHRWVpWFVXZTMvVFAycEIrd2Q0RklHL1YvRUVwSDhVbHhFVC9BT2lxK2xLT2F0VktpNm1IMWVuMlBtcHYyQy9BRE1HR282NnJEK0piaUlIL0FORjB4UDJDUEFxVGVaL2JYaU5qNk5kUllIL2tPdnBqbWptajJ0VHVIc0tmWStjbi9ZYjhDK1NVZlU5Y0s5T1o0aWYvQUVYVkJ2MkFQaHhKbk41cldUMS9mUmYvQUJ1dnBlNi80OTMzSjVpa1lLanVPOWZLbmlQVk5lL1o5K0tldCtMUDdhMXJXL2hjOGtWcjRoMC9VZFFsdlgwZHBNTWw5QVpDekxFcGZiSWlrQlZ3d0dGcHFyVXZhNGV3cHJvVmZHdjdIL3dnK0dIaFRVZkVtdDZ4cjlscE9uS3IzRWtMaVZ4dVpWVUNOSWl6RXN5Z0FBbmtWd045NE0rQUdtV2pYZC9jL0VqVDdPSEJsdTd6dzFxTVVNUXpqYzd0YUJWQTdra0FWNk40ZzBPSFN2Z2g0dVJZcmp4ajRUdk5UdkcxUzk4VGVPYm0xRmphd1RCb3BJcmxsbFpRQ2kvY0tuSUJ5U2E4ZDAzVjlLK0lmaDIzYStqZ3VMRFZGVm0wblYvajNjT1prSnlxU3drTUR1QUIyblBCQUl6a0NuVXFkdzloVDdIc1hqdjlsZjRMK0F0S3Q3N3hYNHd1ZkRXbnpTaUdLNjFMVklMYU9TUWdzRlZuVUFuQ2s0OUFhNGx2aHAreTZxcUQ4YU5OQUh6RC9pbzdJLzhBc3RmU2V2Ni84UW04UDZQTkI4TnRDMVRVYmhaWHY3RzY4UmhJckpnY0lGa05zM21ncVNTZHE0NmM5YStkZmdiOFIvRzJ1L0VYNGtQcFh3azBHOWJXYnVIVzBXNDhScEhHbHVpblRsYU54YUh6RmtrMCtXVlhBQ3NraUVaelM5clU3aDdDbjJQU28vMkd2aDdkV3lTUjZyckx4c29aWlk3aUw1Z2VjNUVkWlBoMzlrUDRXK0szMWFQU3RlMTJkdEl2NU5NdkFKVVh5N2lOVlowK2FMbkFkVGtjYzE5SDZMZlhqNkRhWDJ1V2x2b2QwTFlTWGRySGRDYUcyWURMRHpkcTdsWCs5Z0QyRmVIZnNxZU5HMTdWdkhzRStuU2FYTHJHcG54VGFwY3RocElMa21INUFRTjZwOWxWaTQ0UG5wMDdudGFuY1BxOVBzWVBpWDlrZjRYK0VWMDcrMVBFR3ZRU2FqZHgyTnBDc2tja3M4ejlGUkZpTEhBRE14QXdxcXpIQVVrYzdxbndWL1orMGh0WU54OFNXYTUwaWNXbDdhd2FyYnkzRVZ3MjRKQVlsUXNaV01iaFl3TnpGU0FDYTRqL0FJS05zbC80ejB5d2ZRcm5VWmJQd1ByOTVhVFBaVzl4YkdUZGJsNUUzeW82UEZHcnY1a1kzSVNodzZHUmFzZkUrNjhRWGxsOFQ3QmJQUkl0ZmwxTHc3cUZ0ck1rN1g5dStuRFZoYlc5dXFJRWVHVkpyY3lTb1hjYjVac2JTd3dlMW4zRDJGUHNleVEvc0tmRDNVTGVLY1h1dWhKVURnU1N4b3dCR2VWTVdRZlk4aW5OK3dSOFB5QUZ2OWNqeDNTNGovOEFqZGZTVUFtRUVZbUtOTnRHOHhnaFMyT2NBazRHYWZ6UjdXcDNEMkZQc2ZOa1A3Qm5nU0VuYnEvaUE1OWJtTC80M1N0K3diNENkaVcxVFgzOWpjeFkvd0RSZGZTWE5MakZIdHFuY1BZVSt4ODEyZjdCL2dHd3ZvYnFLLzEwU1F5cEt2OEFwTVlCS3NHQUlFWXlNaXZwTlB1OU1kK0tYdFFLemNwUytJMGhDTUZhS0Zvb29wR2dVVVVVQUZGRkZBQlJSUlFBVVVVVUFGRkZGQUJTR2xvb0FqbVRlbzlqbmp2WG1WcDhIZFR0UGpwZGZFUC9BSVN1YVMzdU5NajByK3cvc0VJalNGR1oxeE45L085M09mUWdkQlhxTkZBSFA2bjRHMERXN3MzV282RHBsOWNzUUdtdXJPS1Z5QU1ENW1VbnBYRC9BQXArRWVvZUI5ZThhZUlieVBSTFRVL0VEd1JwWWFIQTBObEZEYmlWWUNRUUdNakNYNXowK1VZcjFpaWdEeUM2K0FuL0FBay9nSHhqcC9pWFZUZGVLdkYrbHphYnFXdDIwWS8wYU9SR1VRMnFOOXlHUGNTcW5samxteVR4VjhPZUZmakwvd0FKUllYMnQ2djRVdDlKMDNTN3kzaDAzU2Z0ZXk4dW5FWGtTWEcvK0dQeTIrN3orOGJGZTAwVUFlYWVEL2hiZFJTNmxyM2pGN0xYUEZ1c1duMkMrZUJDTFNDMDVQMlNCVzVFT1NTUzN6T1NTZXdGTFJmaDU0eThJNkxyWGhuU2RSMG03OExEVG5oME5kUUV2MnF6a1liVmdrWmVIZ2pYaFQ5L0dGUEM1UHJGRkFIeUJwWDdDczlscnQ1WWYyam90cjRRT2phZHAwTXNGa1cxR2FhMHRKN2J6cFFjUkFTcmRTTEtxajUwWFlmOVk1cjFuNEpmQ1RXdkFuaWp4VHJldGFKNFAwMi8xb3hOTmUrR2Z0UWx1MlV0bHBoTWRvd0NBTnZUa2RBSzltb29BS0tLS0FDaWlpZ0Fvb29vQUtLS0tBQ2lpaWdBb29vb0FLS0tLQUNpaWlnQW9vb29BS0tLS0FDaWlpZ0Fvb29vQWE0TEtRRGdudlhCZUh2aHZxdGo0aThWM2V0K0kxOFJhTnJwd05IbjB5R0tPM1RCWFlYWDVwQnR3dnplbnZYZjBVcmRRT0QrSFB3ZDBINFplQWg0TzA2MysxNkFzMDBpV3QvaWRWV1NRdjVaM1ozQUU0R2V3RmNwOFl2MmZyUDRnZUZENGMwWFJmREdrMldwUDVPcDMwbW5LTHFHM0l5WHRpaTQ4M2NCZ3R4aXZaNktZSERlUC9BZW9lUGJpeTB5YlVCWitGSkE3YXRiVzVaYmkrQXhzdDk0KzVDM3piOGZNd0FYb3pWeW5pZjRaK010RStJTGVMUGg5SjRjaW11dEl0dEZ1dFAxeU9aTGVHSzNrbWtpYUR5T1FUOW9kU0c0QVZjZDY5a29vQThXdC9oZjhRdFc4RmVHdkNQaVR4UlkzdW1mMmNJUEV1cDI2eWkvMUdYUHp4UnNmbFNGMU9HWS9QamdkY2pvUEYvd3FsYit4OVc4R3RaNkQ0bjBHMCt3NmJKSWhOcEphL0wvQUtIT2k4bUU3RVB5L01wVldISXdmU2FLQVBuRDQvOEE3Tld2L0hiVEx5VzluOFBwcS84QXdpMDJoV2FUeFN2YlEzTnpKQzl6Y1orK05ua0o1VzBnbmMyL0k0ckQxejlrdlhMblNiZ0N5OEVlSmJuV21XNTFtdzEyMXVZN09HNFdXV1pEYW1FNzlubVR5TVEvVnkwbjNuTmZWZEZBRmZUb0d0ZFB0b1hWRWVPSlVLeFoyQWdBWUdlY2VtZWFzVVVVQUZGRkZBQlJSUlFBVVVVVUFGRkZGQUgvMlE9PSIgaGVpZ2h0PSIzOTgiIHdpZHRoPSI1MDYiLz48Y2xpcFBhdGggaWQ9ImNsaXAxIj48cmVjdCBoZWlnaHQ9IjM2MDA0NTAiIHdpZHRoPSI0NTc3NDU2IiB5PSIwIiB4PSIwIi8+PC9jbGlwUGF0aD48L2RlZnM+PGc+PGcgdHJhbnNmb3JtPSJzY2FsZSgwLjAwMDEwNDk4NyAwLjAwMDEwNDk4NykiPjxnIHRyYW5zZm9ybT0ic2NhbGUoMS4wMDA4OSAxKSIgY2xpcC1wYXRoPSJ1cmwoI2NsaXAxKSI+PHVzZSB0cmFuc2Zvcm09InNjYWxlKDkwNDYuMzYgOTA0Ni4zNikiIHhsaW5rOmhyZWY9IiNpbWcwIiBoZWlnaHQ9IjEwMCUiIHdpZHRoPSIxMDAlIi8+PC9nPjwvZz48L2c+PC9zdmc+;" vertex="1" parent="1">
          <mxGeometry x="100" y="280" width="481" height="378" as="geometry" />
        </mxCell>
        <mxCell id="A40XxY-_fLG40fNn6AR6-2" value="Shore-Based Control system" style="rounded=0;whiteSpace=wrap;html=1;" vertex="1" parent="1">
          <mxGeometry x="354" y="410" width="106" height="30" as="geometry" />
        </mxCell>
        <mxCell id="A40XxY-_fLG40fNn6AR6-3" value="&lt;font style=&quot;font-size: 10px;&quot;&gt;Communication&lt;/font&gt;&lt;div&gt;&lt;font style=&quot;font-size: 10px;&quot;&gt;&amp;nbsp;Network&lt;/font&gt;&lt;/div&gt;" style="rounded=0;whiteSpace=wrap;html=1;strokeColor=none;fontSize=8;" vertex="1" parent="1">
          <mxGeometry x="310" y="460" width="70" height="40" as="geometry" />
        </mxCell>
        <mxCell id="A40XxY-_fLG40fNn6AR6-5" value="USV 1#" style="rounded=0;whiteSpace=wrap;html=1;" vertex="1" parent="1">
          <mxGeometry x="160" y="635" width="106" height="30" as="geometry" />
        </mxCell>
        <mxCell id="A40XxY-_fLG40fNn6AR6-6" value="USV n#" style="rounded=0;whiteSpace=wrap;html=1;" vertex="1" parent="1">
          <mxGeometry x="422" y="635" width="106" height="30" as="geometry" />
        </mxCell>
      </root>
    </mxGraphModel>
  </diagram>
</mxfile>
